<svg xmlns="http://www.w3.org/2000/svg" xml:space="preserve" viewBox="0 0 400 400" width="400" height="400"><metadata><rdf:RDF xmlns:rdf="http://www.w3.org/1999/02/22-rdf-syntax-ns#" xmlns:dc="http://purl.org/dc/elements/1.1/"><rdf:Description><dc:creator>RealFaviconGenerator</dc:creator><dc:source>https://realfavicongenerator.net</dc:source></rdf:Description></rdf:RDF></metadata><path fill="#fff" d="M1 152V1.024h399.914v399.828H1zm262.976 131.659c.267.436.533.872.997 1.824.007.184.014.368.025 1.117.282.458.564.916 1.189 1.937.206.833.411 1.666.139 3.052.846 2.796 1.692 5.591 2.796 9.02-.001.45-.002.902-.592 1.809-.172 3.44-.512 6.884-.42 10.317.03 1.101 1.2 2.173 2.015 3.932-.075.453-.15.906-.746 1.84-.033 2.194-.066 4.388-.014 7.246-.135.422-.27.843-.97 1.792-.063 1.024-.126 2.049-.06 3.273 0 0-.114.21-.852.287-.084 1.323-.169 2.646-.235 4.635-.136.42-.271.839-1.128 1.366l-3.342 6.995 1.219 1.743c1.997-.609 3.994-1.217 6.394-2.012 0 0 .436.084 1.033.142a67 67 0 0 1 2.16-1.01c.436-.095.871-.188 1.657.317l9.082-1.023c1.014-1.372 2.407-3.255 4.557-5.205 4.027-2.373 8.445-4.287 11.945-7.276 2.438-2.083 3.616-5.641 6.098-8.675 4.368-1.39 5.673-4.917 6.969-9.06 2.342-2.111 5.45-3.829 6.794-6.45 1.176-2.297.37-5.61 1.11-8.665 1.726-2.31 4.922-4.631 4.905-6.929-.056-7.406 3.74-13.799 3.822-21.41.146-13.379 3.539-26.712.574-40.2-.17-.77-.201-1.881.225-2.42 4.993-6.317-2.753-10.903-2.254-16.592.005-.055-1.205-.216-2.087-1.06-.002-.77-.003-1.538.59-2.863l3.353-18.702-1.025-.267-2.445 4.04c-.51-1.685-1.06-2.554-.958-3.338.353-2.701 2.208-6.09 1.18-7.916-2.7-4.803-.37-9.364-.506-13.946-.143-4.858.905-9.792 1.786-14.629.748-4.114 2.137-8.111 2.92-12.222.181-.947-.95-2.145-1.478-3.228l-1.047.382-.894 10.025c-.928-1.626-1.252-1.988-1.352-2.404-.559-2.312 1.047-6.376-3.098-5.851-1.57.198-2.709 4.036-3.964 6.26-.212.376-.016.982-.353 1.89-.231.484-.463.97-1.396 1.514-1.037-.013-2.108.131-3.102-.081-1.117-.239-2.164-.8-3.24-1.221.211 1.11.08 2.49.7 3.281 1.949 2.49 1.413 4.015-.784 6.253-6.31 6.43-6.194 14.505-4.762 23.514-.1 1.057-.199 2.114-1.044 3.198-4.368 2.267-4.362 3.642.106 9.666.22.792.441 1.584.55 2.911-.21.482-.42.963-1.44 1.589-.425 1.483-1.143 2.951-1.217 4.452-.181 3.65.093 7.326-.156 10.969-.082 1.2-1.015 2.505-1.892 3.454-1.662 1.797-3.565 3.371-6.165 5.776l-5.184-1.211 2.179-4.208-5.81-.906c.175-2.01.002-3.873.535-5.506 2.47-7.577 5.114-15.097 7.738-22.623 2.2-6.315 5.536-12.46 6.436-18.947 1.316-9.483.579-9.585 7.238-15.01-3.007-5.536-4.142.596-6.782 1.387-.046-8.482-.786-16.476-4.08-24.145-3.384-7.88-6.392-16-8.582-24.275-.918-3.469-7.434-5.564-3.002-9.744-1.617-1.796-3.118-3.133-4.215-4.745-2.842-4.175-5.514-8.305-5.607-13.826-.028-1.666-3.28-3.278-5.415-5.216-.206-.236-.389-.49-.388-1.441-.008-.464-.015-.929.571-1.847-1.166-3.85-2.332-7.699-3.56-12.206-.012-.44-.024-.88.557-1.79-.459-1.84-.918-3.68-1.532-6.39.093-2.053.185-4.107.959-6.27 5.177-4.92 4.588-11.77 5.745-17.974.136-.725-2.367-1.943-3.69-3.529-.322-.467-.643-.934-1.06-2.07-.964.223-1.929.446-3.646.67-.753.001-1.506.003-2.923.002-.442-.002-.884-.004-1.406-.603l-1.227-.953c-.23.52-.461 1.04-.692 2.224.002.443.003.885-.747 1.32-.781-.227-1.644-.31-2.33-.703-5.236-2.989-8.188-2.38-10.427 3.15-1.94 4.792-3.096 9.922-4.306 14.973-.23.962.898 2.254 1.413 3.389.446.984.91 1.961.747 3.192-1.113 1.338-2.226 2.676-4.096 4.021-5.117 1.789-5.66 6.533-6.115 10.706-.591 5.425-.239 10.966-.083 16.45.044 1.553.894 3.068 1.242 4.63.55 2.474 1.925 5.239 1.307 7.413-2.364 8.316 2.694 15.458 3.063 23.278.009.19.87.34 1.608.97.48.206.96.41 1.579 1.483.046 2.352.093 4.704-.419 7.57.412 2.186.825 4.37 1.458 7.05.1.15.2.3.147 1.28.017 1.408.035 2.815-.161 4.075 0 0-.255-.047-.87.19-.66 1.102-1.154 2.364-2.018 3.273-2.166 2.28-4.194 5.689-6.832 6.318-5.587 1.332-11.017-4.213-11.218-10.063-.099-2.881-.579-5.75-.938-9.366.068-.74.136-1.48.862-2.383 2.269-2.096 3.985-4.184 2.318-7.668-.876-1.828-.704-4.13-1.25-6.153-.29-1.08-1.102-2.02-1.857-3.697 0-.464-.002-.927.5-1.825-.44-1.201-.878-2.403-1.489-4.234-.043-.432-.086-.864.441-1.772.218-5.081-.805-9.619-5.672-13.064-.044-.36-.088-.719.041-1.932-.356-1.711-.236-3.759-1.16-5.07-2.593-3.672-5.616-7.04-8.827-10.966-.967 6.144-2.169 12.225-2.784 18.366-.298 2.98.503 6.07.857 9.907-.14 1.044-.279 2.088-1.076 3.322-.63 1.067-1.42 2.071-1.861 3.21-1.445 3.737-2.762 7.523-4.129 11.29.303 3.143.409 6.471-.678 9.349-1.759 4.655-4.384 8.975-6.491 13.508-2.656 5.71-7.596 8.064-12.387 5.728-5.715-2.788-7.395-7.757-4.48-13.523 1.328-2.63 2.947-5.117 4.184-7.785.591-1.277.6-2.825 1.159-5.755a1111 1111 0 0 1-8.773 6.015c-.485.28-.97.56-1.463.87 0 0 .029.007-.113-.27-.132-.152-.28-.288-1.224-.583l-6.704-2.39c.509 3.085.86 5.208.864 7.887-1.217 1.15-2.434 2.3-4.301 3.15-5.4-.268-6.038.783-4.091 7.55-.26.87-.52 1.74-1.501 2.623l-5.206-.454c2.516 5.896.045 10.4-2.382 14.959-.923 1.733-2.544 3.94-2.103 5.407 2.084 6.921-2.389 11.501-4.973 16.81-1.572-.625-2.917-1.16-4.263-2.534l-1.945-8.857-1.645.285-1.393 9.116c2.085.122 3.536.207 4.988 1.063l-3.126 4.934c-.744-1.142-1.495-2.28-2.227-3.43-.169-.265-.214-.759-.421-.827-6.15-2.033-2.114-5.343-1.258-8.488 1.117-4.103 4.707-8.138.972-12.646-5.545 1.546-11.745 8.038-12.8 12.636-1.062-1.019-2.056-2.122-3.206-3.028-.87-.687-2.584-1.796-2.824-1.567-3.316 3.166-6.44 6.531-9.842 10.088 6.639 3.188 6.533 3.121 2.928 8.865-3.442 5.485-9.035 9.283-10.676 16.334-1.323 5.685-4.819 10.89-7.537 16.213-1.825 3.574-3.976 6.983-6.028 10.546l-5.998-6.303c-2.249 9.523-2.222 9.58 4.517 9.8-.41 4.212-.55 8.428-1.28 12.54-1.196 6.749-3.34 13.372-4.036 20.155-.71 6.918-.32 13.972-.031 20.951.062 1.523 1.731 2.98 2.95 5.17.007.752.015 1.503-.552 2.682-.775 2.983-2.937 6.372 2.533 8.22.036.443.07.885-.394 1.615.384.593.767 1.186 1.422 2.166 0 0-.029.47-.157 1.229.21 4.467.363 8.94.697 13.397.047.624.878 1.419 1.536 1.722 1.884.868 3.867 1.524 5.84 2.267 0 0-.008.027.101.416.126.253.319.435.84 1.023.035.178.07.357-.438.957-.596 4.692 2.665 5.776 6.677 6.901.317.455.634.91.872 2.172.153 3.453 2.06 4.754 5.864 4.517.357.39.714.78 1.078 1.9 1.272 3.136 3.217 5.363 7.101 5.848 5.696 4.215 11.363 8.252 18.75 9.357 4.332.648 8.424 2.768 12.703 3.934 14.84 4.043 29.88 4.86 44.429-.439 5.849-2.13 10.706-6.983 16.568-10.996 2.852-4.118 5.405-8.356 5.56-14.426 2.156-7.988.602-15.634-2.202-23.898l-3.141-8.074 1.148-.456c1.697 3.084 3.393 6.168 5.373 9.918l6.928 18.155 1.429-.047c.133-5.58 1.423-11.12-.652-17.582-.826-3.685-1.152-7.584-2.614-10.996-1.563-3.648-4.197-6.838-6.662-10.822-7.252-8.87-14.908-17.158-26.884-19.565-11.05-2.222-22.06-3.872-33.595 1.179-5.252 1.925-10.595 3.741-12.154 10.082 0 0 .047.015-.469.188-.177.304-.355.608-.824 1.514-1.216 1.655-2.431 3.311-4.504 4.959-5.687-5.929-6.49-15.742-1.377-23.149 2.382-3.45 5.677-6.269 9.319-9.589.41-.328.82-.656 1.078-.819 0 0 .213-.21.964-.335 1.163-.621 2.26-1.501 3.5-1.82 6.257-1.605 9.566-5.536 10.342-11.952.247-2.04 1.438-3.965 2.64-6.012.272-.193.39-.455.91-1.023.617-.738 1.235-1.476 1.936-2.362 0 0 .128-.113.613-.348.336-.415.673-.83 1.45-1.345.284-.178.418-.434 1.125-.912 9.426-5.37 19.68-6.476 30.305-6.241 11.293.25 22.595.087 34.756.147 13.693-1.167 26.055-5.801 37.13-14.575 1.244 17.48-3.763 31.857-18.454 41.932 2.435 2.864 4.466 5.252 6.435 8.268 2.05 2.455 4.101 4.91 6.624 7.513.303.2.448.482.413 1.624.972 1.091 1.945 2.183 3.31 3.612.057.164.114.328-.455.8-.726 2.84.316 4.464 3.174 4.841 0 0 .07-.102.007.715.615 2.486-1.455 6.571 3.982 6.74 0 0 .024.476.013 1.083.286.501.573 1.003.949 1.52 0 0-.03.084.001.617m-100.468-34.484c7.378 2.645 11.435-1.304 14.36-7.401-7.917-4.795-12.658 3.823-20.672 4.722 2.658 1.21 4.105 1.868 6.312 2.68m171.415-92.5-2.131-1.258-.605 5.058 1.634.272c.384-1.099.768-2.198 1.102-4.073m-34.847-34.364 2.03-4.368q-1.094-.284-2.187-.566c-.142 1.752-.283 3.504.157 4.934m-166.999 36.994 1.54.79-.012-2.244c-.51.269-1.021.537-1.528 1.454M87.321 187.55l-.352-2.292-1.316.25c.341.713.682 1.426 1.668 2.042M287.144 87.49l1.278.908.34-1.343c-.499-.054-.997-.108-1.618.435m-206 112 1.279.91.34-1.345c-.499-.054-.998-.108-1.619.435m222.133-72.607.575 1.628.834-.381c-.325-.56-.65-1.118-1.409-1.247m-6.99-11.343.336-1.732-1.229-.015c.098.58.195 1.16.893 1.747m6.008 61.894-.854.815c.113.118.317.345.325.338.3-.254.583-.528.53-1.153m29.502 27.96-.012 1.178c.163.002.468.015.468.004.03-.392.032-.785-.456-1.183m-233.502-43.96-.855.816c.113.118.317.345.325.339.3-.254.583-.53.53-1.155"></path><path fill="#f8f5f9" d="M195.996 344.999c-5.309 3.614-10.166 8.468-16.015 10.597-14.55 5.298-29.588 4.482-44.43.439-4.278-1.166-8.37-3.286-12.702-3.934-7.387-1.105-13.054-5.142-18.516-9.735.435-.398.637-.419 1.186-.386 11.42 6.294 23.215 9.387 35.849 6.893 12.813-2.53 23.844-8.07 30.155-20.805 1.528-3.44 2.724-6.749 4.27-10.17.575-1.818.8-3.523.919-5.547-.04-1.207.029-2.094.175-3.408.119-1.574.159-2.721.483-3.571.342 5.295.4 10.294.425 15.264-.032-.028-.015-.108-.286.224-1.948 7.22-5.42 13.07-11.947 18.43h7.847l1.333 4.817c3.684-.308 6.697-.898 9.666-.726 3.881.224 7.727 1.05 11.588 1.618"></path><path fill="#e3e4ee" d="M202.014 286.967c2.167 3.39 4.801 6.579 6.364 10.227 1.462 3.412 1.788 7.311 2.225 11.4-2.793-.263-5.196-.93-7.6-1.596l-5.089-9.252-1.148.456c1.047 2.692 2.094 5.383 2.893 8.645-2.04 2.878-3.583 2.407-5.56.551-1.014-.95-2.845-1.127-4.352-1.43-2.281-.458-4.625-.61-6.899-1.096-2.337-.5-4.62-1.247-7.089-2.14-.66-.826-1.161-1.396-1.643-2.16.019-.194-.094-.568.063-.787-.253-1.122-.664-2.023-1.093-2.877-.018.049.075.004.155-.303-1.974-7.293-5.924-12.864-12.198-16.678-.026.043.064 0-.098-.302-1.99-1.2-3.82-2.098-5.689-2.986-.04.01-.013.09-.218-.197-1.807-.609-3.41-.932-5.266-1.332-.43-.086-.608-.095-1.056-.41-7.222-1.697-13.398.936-19.605 3.41 1.53-6.383 6.874-8.199 12.508-9.71 1.29 1.47 2.04 3.177 3.139 3.444 2.04.495 4.375-.24 6.429.23 5.907 1.353 11.734 3.051 17.593 4.613l-.35 1.132 5.62-1.97-1.855 7.038c2.931-.595 5.532-1.993 7.406-1.332 4.887 1.725 9.631 4.057 14.099 6.71 3.935 2.337 6.376 2.287 8.314-1.298"></path><path fill="#fcd859" d="M270.75 71.086c.158.271.34.525.756 1.27.262 1.23.313 1.951.155 2.843.257.736.724 1.3 1.258 2.183.068.751.069 1.183-.279 1.675-4.562 2.771-5.057 2.512-7.705-3.795l-8.501.655.672-1.465c-1.365-1.482-2.73-2.965-4.107-4.862-.016-1.8-.02-3.183-.013-4.938-.2-1.309-.41-2.248-.621-3.186l-.916.046c-.153 1.138-.306 2.277-.718 3.643-.745 1.768-1.232 3.309-2.109 4.841-1.44-.802-2.46-1.638-3.546-2.38-1.356-.926-2.765-1.774-4.135-3.1.033-3.134.05-5.821.069-8.855-.043-.804-.09-1.262-.07-1.678.066.043.211.103.525.05 1.376-.715 2.436-1.376 3.846-2.073 2.424-2.628 4.499-5.221 6.574-7.814l-.918-.986 7.493 1.316c1.578 4.092-1.307 9.269 4.008 12.626.242-1.764.408-2.98.945-4.169 1.351.077 2.333.128 3.362.504.04.76.033 1.196-.212 1.87.168 1.767.573 3.295 1.065 5.135.11.74.134 1.169-.06 1.8.21 1.097.638 1.99 1.166 3.187.157.726.214 1.148.03 1.756.501 1.425 1.244 2.663 1.986 3.901"></path><path fill="#dce4ec" d="M201.865 286.67c-1.79 3.882-4.23 3.932-8.165 1.595-4.468-2.653-9.212-4.985-14.1-6.71-1.873-.661-4.474.737-7.405 1.332l1.855-7.038-5.62 1.97.35-1.132c-5.859-1.562-11.686-3.26-17.593-4.612-2.054-.47-4.388.264-6.43-.231-1.099-.267-1.849-1.974-2.764-3.457 10.78-5.452 21.79-3.802 32.84-1.58 11.975 2.407 19.631 10.696 27.032 19.862"></path><path fill="#fdf6f0" d="M271.871 75.027c-.052-.72-.103-1.44-.185-2.52 1.746 1.278 4.998 2.89 5.026 4.556.093 5.52 2.765 9.651 5.607 13.826 1.097 1.612 2.598 2.95 4.215 4.745-4.432 4.18 2.084 6.275 3.002 9.744 2.19 8.275 5.198 16.396 8.582 24.275 3.294 7.67 4.034 15.663 4.08 24.145 2.64-.79 3.775-6.923 6.782-1.388-6.66 5.426-5.922 5.528-7.238 15.01-.9 6.489-4.235 12.633-6.436 18.948-2.624 7.526-5.268 15.046-7.738 22.623-.533 1.633-.36 3.495-.534 5.506l5.809.906-2.179 4.208 5.184 1.21c2.6-2.404 4.503-3.978 6.165-5.775.877-.949 1.81-2.254 1.892-3.454.249-3.643-.025-7.319.156-10.97.074-1.5.792-2.968 1.69-4.076.494 3.09.516 5.804.42 8.895-.103 1.429-.09 2.48-.166 3.939-1.37 4.482-2.65 8.557-4.286 12.744-9.893 3.634-17.077-1.117-16.33-11.165.45-6.036 2.527-11.95 4.147-18.116 1.175-2.572 2.078-4.948 3.257-7.53 5.712-10.982 7.507-22.397 6.323-34.791-.544-9.312-1.247-18.152-5.922-26.36-.086-.951-.235-1.582-.4-2.452-.148-.573-.394-.758-.766-.76-.015.034.058.018.001-.29-.351-.597-.646-.887-.857-1.42.003-.573-.077-.903-.134-1.59-.662-1.789-1.346-3.22-2.039-4.962-.52-1.183-1.03-2.054-1.597-3.28-.797-1.799-1.538-3.244-2.274-4.882.005-.194-.187-.53-.195-.888-1.667-3.778-3.324-7.197-4.989-10.979-1.317-2.794-2.628-5.226-4.022-7.878-.224-.507-.42-.75-.696-1.292-.718-1.748-1.411-3.151-2.15-4.565-.046-.01-.088.073-.088.073 0-.432-.001-.864-.031-1.928-.382-1.102-.734-1.572-1.086-2.042"></path><path fill="#ebedf4" d="M175.92 302.987c2.307.638 4.591 1.384 6.928 1.885 2.274.487 4.618.638 6.9 1.096 1.506.303 3.337.48 4.35 1.43 1.978 1.856 3.521 2.327 5.594-.187 3.019 7.33 4.573 14.975 1.922 23.377-5.59-.46-10.845-.828-15.727-2.373-3.553-1.125-8.43-1.948-8.023-7.637.036.03-.037.086-.037.086-.058-4.998-.115-9.997-.706-15.328-.699-.337-.866-.34-1.07-.34-.038.004-.044-.072-.064-.378a6.6 6.6 0 0 0-.191-1.097c-.063-.187.124-.534.124-.534"></path><path fill="#d92e44" d="M219.984 218.926c-11.298-.017-22.6.146-33.893-.104-10.626-.235-20.879.872-30.666 5.971.287-1.442.934-2.614 1.975-3.834 2.07-.607 3.747-1.165 6.41-2.05-.962-4.424-1.885-8.668-2.808-13.334-.708-5.717 3.13-4.435 6.159-4.321.714.42 1.262.596 1.868 1.112 4.51 4.86 8.94 9.404 13.452 13.866.503.497 1.467.696 2.231.733 7.91.381 15.822.739 23.736.998 1.276.042 2.813-.06 3.812-.724 5.983-3.973 11.845-8.13 18.142-12.235 3.574-.715 6.754-1.419 10.849-2.325-1.812 3.982-3.03 6.658-4.41 9.645-2.786 1.515-5.353 2.872-8.05 3.883-2.871 1.077-5.866 1.826-8.807 2.719"></path><path fill="#faa956" d="M156.166 128.1c1.217-1.15 2.434-2.3 4.114-3.738.835-.4 1.208-.512 1.893-.574.691-.345 1.07-.74 1.629-1.401 1.125-.73 2.07-1.193 3.402-1.567 1.29.843 2.193 1.598 2.997 2.631-.42.769-.737 1.26-1.39 1.74-.425.917-.516 1.846-.668 3.205-.08 2.163-.098 3.898-.339 5.785.2.73.625 1.308 1.152 2.216 2.94 5.524 7.603 7.827 13.05 6.403 3.238-.847 5.913-3.845 9.218-5.88 2.178-1.625 3.86-3.414 5.827-4.798 1.05-.74 2.594-.779 3.89-.78-.691 2.107-1.358 3.86-2.354 5.679-1.565 1.355-2.92 2.554-4.018 3.953-6.612 8.424-19.621 13.733-30.561 3.65-.355-1.441-.705-2.533-1.041-4.034-.542-1.774-1.098-3.138-1.654-4.503-1.457 1.296-2.915 2.592-4.674 4.057-2.067 4.069-3.832 7.97-5.75 12.182-.414 1.417-.675 2.521-1.178 3.628-.242.003-.726.024-.943-.241-1.111-.452-2.004-.639-2.869-1.197 1.578-5.168 3.128-9.964 4.749-15.058a10 10 0 0 0-.003-1.497c.26-.87.52-1.74 1.044-3.03.66-.57 1.057-.72 1.798-.936 1.092-1.662 1.839-3.259 2.632-5.113.046-.433.047-.607.047-.782"></path><path fill="#a6144f" d="M171.191 328.201c-5.979 12.601-17.01 18.143-29.823 20.672-12.634 2.494-24.429-.599-36.044-7.17-3.14-2.066-5.736-3.801-8.332-5.537-.358-.39-.715-.78-1.49-1.549-2.068-1.9-3.718-3.422-5.367-4.944-.317-.455-.634-.91-1.282-1.814-1.569-2.188-2.808-3.929-3.986-5.729.06-.06.182-.178.509-.174.763.02 1.199.034 1.775.353 5.876 4.928 11.255 10.13 17.473 13.974 4.175 2.581 9.538 3.24 14.403 5.048.678.419 1.322.55 2.41.68 5.145.32 9.845.642 14.899.968 1.127-.64 1.9-1.284 3.007-1.937.778-.012 1.223-.013 1.897.25 5.438 2.72 8.288-.332 11.101-4.26.779-.018 1.224-.026 2.035-.037 3.28-1.965 6.193-3.927 9.106-5.89 1.767.138 3.43-.312 4.943-1.062.949-.47 1.675-1.392 2.568-2.044z"></path><path fill="#fdf5f2" d="M70.79 285.01c-.93-1.488-2.599-2.945-2.661-4.468-.288-6.979-.68-14.033.031-20.951.697-6.783 2.84-13.406 4.037-20.155.729-4.112.87-8.328 1.279-12.54-6.74-.22-6.766-.277-4.517-9.8l5.998 6.303c2.052-3.563 4.203-6.972 6.028-10.546 2.718-5.323 6.214-10.528 7.537-16.213 1.641-7.051 7.234-10.849 10.676-16.334 3.605-5.744 3.71-5.677-2.928-8.865 3.401-3.557 6.526-6.922 9.842-10.088.24-.23 1.953.88 2.824 1.567 1.15.906 2.144 2.009 3.662 3.074.456.046.6.17.518.498-1.244 1.726-2.494 3.06-3.55 4.534-5.483 7.646-10.915 15.327-16.614 23.26-1.604 2.69-3.277 4.995-4.26 7.565-4.48 11.717-8.766 23.508-13.275 35.56-.198.715-.242 1.144-.427 1.8-.114.406-.088.583-.138 1.014-.054.43-.032.605-.193 1.029-.21.65-.236 1.053-.446 1.658-.298.727-.413 1.252-.743 2.052-.28 1.18-.344 2.083-.516 3.405-.825 7.047-1.782 13.663-2.19 20.312-.332 5.422-.008 10.884.026 16.329"></path><path fill="#ab1c4f" d="M263.037 280.915s-.024-.476-.18-1.027c-1.358-2.702-2.56-4.854-3.763-7.006 0 0-.07.102-.049-.263-.842-1.839-1.706-3.312-2.57-4.785-.056-.163-.113-.327-.443-.972-1.188-1.624-2.1-2.767-3.014-3.91.012-.363-.133-.645-.715-1.234-.596-1.147-.912-1.906-.913-2.65 1.395.646 2.474 1.279 3.697 2.226 3.397 4.453 6.647 8.59 9.905 13.119 2.662 7.128 5.318 13.866 7.981 21.045.67 4.114 1.685 7.765 1.925 11.466.57 8.769.706 17.566 1.16 26.344.147 2.86-1.812 7.218 3.791 7.046-1.809.943-3.383 1.656-4.958 2.368-.436.094-.871.187-1.913.375-1.12.35-1.636.604-2.151.86 0 0-.436-.085-1.063-.02-2.959.732-4.176-.035-3.827-2.56.203-1.46.596-2.893.904-4.339.136-.42.271-.839.643-1.85.403-1.77.57-2.945.737-4.12 0 0 .113-.21.302-.603.271-1.399.354-2.403.436-3.408.135-.421.27-.842.571-1.927.233-2.797.301-4.93.37-7.065.074-.452.15-.905.257-2.145-.325-5.164-.681-9.54-1.037-13.918 0-.451.001-.902-.077-2.06-.798-3.426-1.519-6.147-2.239-8.867-.206-.832-.411-1.665-.743-3.066-.44-1.023-.754-1.479-1.068-1.934a35 35 0 0 0-.06-1.089c-.355-.964-.672-1.392-.988-1.82 0 0 .03-.085-.01-.398a13 13 0 0 0-.898-1.813"></path><path fill="#f2f1f7" d="M177.827 320.55c-.37 5.717 4.507 6.54 8.06 7.665 4.882 1.545 10.136 1.913 15.674 2.787.393 5.242-2.16 9.48-5.288 13.798-4.138-.369-7.984-1.195-11.865-1.42-2.969-.17-5.982.419-9.666.727l-1.333-4.817h-7.847c6.527-5.36 9.999-11.21 11.942-18.39.266-.29.323-.35.323-.35"></path><path fill="#ea3045" d="M157.007 221.008c-.648 1.171-1.295 2.343-1.944 3.857.016.676-.118.932-.973 1.17-.835.547-1.1 1.033-1.364 1.52 0 0-.128.113-.528-.028-.964.82-1.527 1.78-2.091 2.74.035.33-.083.593-.962.745-1.446-1.598-2.286-3.154-3.451-5.314-.97.83-1.831 1.566-3.069 2.308-2.716 1.126-5.032 2.3-7.4 3.359-7.88 3.526-11.377 2.976-14.671-2.988-.32-.578-1.249-.819-2.448-1.556-.69 5.124-3.444 7.11-8.112 5.752.324-3.142.646-5.862.928-8.983-.613-3.992-1.184-7.582-2-12.712 6.958 3.814 13.016 6.026 15.295 13.104.566 1.757 1.998 3.235 3.032 4.842 1.59-1.274 3.181-2.547 5.122-3.858 2.84-1.528 5.681-4.645 7.75-4.197 5.737 1.243 11.207 2.287 16.886.239"></path><path fill="#fac85f" d="M221.08 102.977c0 .464.001.927-.053 1.711-.056.32-.344.358-.54.63-.295 1.411-.392 2.55-.848 3.646-1.558-1.154-2.758-2.262-4.203-3.598-.32 2.168-.607 4.125-.895 6.083-2.02-3.391-2.519-7.844-8.004-6.679v-7.495c-1.5 1.117-2.574 1.917-3.681 2.33-.117-1.157-.2-1.926-.285-2.695a35 35 0 0 1 .68-3.799c.997-7.362 1.732-14.057 2.595-21.91l8.885 11.194c.043.36.087.719.214 1.709 1.73 4.723 3.374 8.816 5.02 12.908.042.433.085.865.12 1.973.326 1.781.66 2.887.994 3.992"></path><path fill="#f9763c" d="M326.976 206.01c.002.768.003 1.537 0 2.658-.006.352-.257.35-.48.675-.78 5.234-1.337 10.144-1.893 15.054l-1.603-.018c0-1.987.02-3.974-.003-5.96-.066-5.352-2.763-6.995-7.612-4.568-1.868.935-3.632 2.075-5.433 2.716.179-1.697.265-3.005.527-4.276 1.464-7.102 2.97-14.195 4.521-21.653 1.078-2.784 1.886-5.328 3.19-7.585.898-1.554 2.485-2.71 3.833-3.65.81 4.097 1.597 7.793 2.284 11.507.93 5.026 1.783 10.065 2.67 15.1"></path><path fill="#fce159" d="m263.043 52.908-.575 4.194c-5.315-3.357-2.43-8.534-4.008-12.626l-7.493-1.316.918.986c-2.075 2.593-4.15 5.186-6.571 7.377-.44-1.876-.531-3.348-.59-5.128-.035-.712-.101-1.115.05-1.775 1.11-1.456 2.001-2.654 3.19-3.901.426-.403.554-.758.724-1.435.775-1.325 1.51-2.328 2.623-3.31 1.137-.994 1.895-2.008 2.856-3.064.204-.043.613-.115.974-.07 1.527-1.248 2.694-2.54 3.86-3.837-.001-.003.005 0 .358.007 1.116-.662 1.878-1.33 2.82-2.07.18-.074.563-.138.968-.073 2.06-.147 3.715-.36 5.298-.563-.133 2.585-.24 4.676-.393 6.745-.045-.022.043.012-.265.211-.502 2.715-.696 5.23-.84 8.007.126.423.2.584.276.745-.093 2.054-.185 4.108-.3 6.522-.021.362-.266.323-.625.37-3.321-.095-3.36 1.901-3.255 4.004"></path><path fill="#fdf5f2" d="M150.284 137.968c.386.393.41.793.065 1.635-2.051 5.381-3.733 10.321-5.564 15.616-.717 3.115-1.284 5.875-2.148 8.803-.674 1.44-1.052 2.709-1.563 4.268-.184.916-.236 1.542-.607 2.352-1.827 3.108-3.036 6.245-4.924 8.9-2.178 3.06-5.207 5.238-9.36 4.304-3.901-.877-6.126-3.738-6.386-7.403-.238-3.34.442-6.817 1.173-10.134.58-2.64 1.848-5.128 2.81-7.683l-.861-.576-9.72 8.115s-.145-.125-.218-.19c.216-4.625 6.416-11.117 11.96-12.663 3.736 4.508.146 8.543-.971 12.646-.856 3.145-4.892 6.455 1.258 8.488.207.068.252.562.42.827.733 1.15 1.484 2.288 2.228 3.43 1.042-1.645 2.084-3.29 3.125-5.319-.001-.384-.002-.383-.002-.383l4.261 1.695c2.584-5.309 7.057-9.889 4.973-16.81-.441-1.466 1.18-3.674 2.103-5.407 2.427-4.558 4.898-9.063 2.382-14.959 2.13.186 3.668.32 5.566.448"></path><path fill="#fdf6f0" d="M327.274 205.731c-1.184-4.756-2.037-9.795-2.967-14.821-.687-3.714-1.473-7.41-2.216-11.694-.001-.58-.032-.977.201-1.111.366-.444.498-.754.692-1.532.435-12.195.81-23.923 1.192-35.871l-4.142 4.436c-.007-.499-.203-1.105.01-1.48 1.254-2.225 2.393-6.063 3.963-6.261 4.145-.525 2.54 3.539 3.098 5.851.1.416.424.778 1.352 2.404l.894-10.025 1.047-.382c.528 1.083 1.66 2.28 1.478 3.228-.783 4.11-2.172 8.108-2.92 12.222-.88 4.837-1.93 9.77-1.786 14.63.135 4.58-2.194 9.142.506 13.945 1.028 1.826-.827 5.215-1.18 7.916-.103.784.448 1.653.958 3.338l2.445-4.04 1.025.267c-1.118 6.234-2.235 12.468-3.65 18.98"></path><path fill="#da4d5a" d="M254.942 260.98c-1.078-.633-2.157-1.266-3.72-2.206-2.058-1.806-3.63-3.307-5.202-4.807-2.03-2.389-4.062-4.777-6.497-7.641 14.691-10.075 19.698-24.453 18.454-41.932-11.075 8.774-23.437 13.408-37.562 14.553 2.51-.914 5.505-1.663 8.377-2.74 2.696-1.011 5.263-2.368 8.456-3.885 4.694-2.114 8.946-3.677 12.899-5.797 2.878-1.544 5.363-3.824 9.004-6.495.797 3.825 1.869 6.357 1.727 8.82-.311 5.397-1.237 10.758-2.187 16.344-1.108 2-1.843 3.846-2.795 5.572-2.592 4.693-4.709 9.805-8.081 13.865-3.377 4.066-3.699 4.83.918 7.648 2.61 1.593 4.843 3.8 7.124 6.026-.385 1.088-.65 1.882-.915 2.675"></path><path fill="#fdfef9" d="M240.006 111.999c-.463-.17-1.324-.32-1.333-.51-.37-7.82-5.427-14.962-3.063-23.278.618-2.174-.757-4.94-1.307-7.413-.348-1.562-1.198-3.077-1.242-4.63-.156-5.484-.508-11.025.083-16.45.455-4.173.998-8.917 6.496-10.373.706 1.107 1.031 1.882 1.357 3.005.052.812.103 1.274.154 1.736 0 0-.145-.06-.544-.024-.774 2.01-1.148 3.982-1.537 6.378.038 1.832.09 3.242.09 5.112.013 7.422.08 14.384.032 21.685-.156.813-.196 1.287-.49 1.983.203 1.419.66 2.614 1.201 4.195.126 1.434.167 2.483-.074 3.732.104 1.434.49 2.668.953 4.221.135.752.195 1.185.015 1.76-.073.727.093 1.31.23 2.265-.024 1.113-.016 1.855-.284 2.829-.429 1.412-.583 2.594-.737 3.777"></path><path fill="#f52e5b" d="M70.934 285.361c-.178-5.796-.502-11.258-.17-16.68.408-6.65 1.365-13.265 2.467-20.538.406-1.58.43-2.517.453-3.454.116-.525.231-1.05.895-1.56.503 2.967.459 5.92.124 9.153-.39 7.714-4.388 15.478.486 22.393 3.208-1.509 5.508-2.59 7.808-3.339.002.776.003 1.22-.042 2.03-1.386 4.322-2.876 8.233-4.028 12.241-1.464 5.091-2.654 10.26-4.19 15.372-.229-.023-.678-.113-.678-.113s.029-.471-.05-.95a13 13 0 0 0-.843-1.974c-.035-.443-.07-.885-.186-2.01-.68-3.11-1.279-5.538-1.879-7.965-.007-.752-.015-1.503-.167-2.606"></path><path fill="#fdf6f0" d="M327.095 209.034c.768.126 1.978.287 1.973.342-.499 5.69 7.247 10.275 2.254 16.591-.426.54-.394 1.651-.225 2.42 2.965 13.489-.428 26.822-.574 40.2-.082 7.612-3.878 14.005-3.822 21.411.017 2.298-3.18 4.619-5.326 6.952-.422.022-.596-.123-.567-.497 1.73-6.738 3.43-13.103 5.177-19.767.06-.704.074-1.108.421-1.715.659-1.715.984-3.225 1.472-5.08 2.644-15.146 2.83-29.987.951-45.274-.671-5.474-1.39-10.536-2.11-15.598 0 0 .251 0 .376.015"></path><path fill="#d01e4e" d="M130.467 252.206c-2.88 3.105-6.176 5.924-8.558 9.374-5.113 7.407-4.31 17.22 1.86 23.232.482.084.557.262.434.56-.552 1.174-.981 2.047-2.016 4.155l-6.35-13.409c-.717 1.911-1.272 3.393-2.103 4.645-.429-1.409-.583-2.588-.736-4.233-.552-9.122.2-17.568 4.004-25.528-.002-.002.002.003.376.011 1.469 1.181 2.701 2.255 3.628 3.548 1.53 2.137 2.383 1.733 3.26-.675.758-.709 1.25-1.296 2.078-1.884.785-.008 1.233-.014 2.09-.005.95.08 1.492.144 2.033.21"></path><path fill="#fdfef9" d="M250.933 35.953a85 85 0 0 0-2.453 3.484c-.436.76-.625 1.045-.813 1.33-.892 1.199-1.783 2.397-3.04 3.834-.365.239-.652.14-.652.14-.456-.98-.92-1.958-1.367-2.942-.515-1.135-1.643-2.427-1.413-3.389 1.21-5.05 2.366-10.18 4.306-14.973 2.239-5.53 5.191-6.139 10.426-3.15.687.392 1.55.476 3.03.848 3.282 1.543 4.125.389 4.037-2.13l3.009-.006h2.99c.323.467.644.934.747 1.854-.393.982-.568 1.511-1.067 2.113-.984.121-1.644.17-2.695.165-1.243.606-2.094 1.266-2.983 2.218-.109.68-.18 1.067-.253 1.453 0 0-.383.064-.883.113-.927.082-1.354.114-2.186.122-1.49-.018-2.575-.012-3.675-.4-.672-3.901-3.345-3.023-4.902-1.955-1.458.999-2.35 3.138-2.863 4.954-.114.402 2.409 1.55 3.734 2.616.03.436.045.611.006 1.094-.383 1.075-.711 1.84-1.04 2.607"></path><path fill="#fef5da" d="M202.242 97.005c.413.674.497 1.443.545 2.935-.303 1.826-.57 2.93-1.065 4.216-.33.736-.43 1.293-.619 2.204-.138 1.327-.189 2.299-.448 3.444-.33.506-.45.838-.673 1.545a8407 8407 0 0 1-9.135 25.575c-2.928 2.031-5.603 5.03-8.84 5.876-5.448 1.424-10.111-.88-13.01-6.703-.364-1.11-.667-1.59-.97-2.069.018-1.734.036-3.469.346-5.829a24 24 0 0 0 .772-2.997c.319-.49.637-.982 1.363-1.855 1.476-1.71 2.543-3.039 4.424-5.382l-5.996.878 8.294-5.721c-.56 2.93-.568 4.478-1.16 5.755-1.236 2.668-2.855 5.156-4.184 7.785-2.914 5.766-1.234 10.735 4.481 13.523 4.791 2.336 9.731-.018 12.387-5.728 2.107-4.533 4.732-8.853 6.49-13.508 1.088-2.878.982-6.206.679-9.35 1.367-3.766 2.684-7.552 4.129-11.288.44-1.14 1.23-2.144 2.19-3.306"></path><path fill="#f89454" d="M314.942 191c-1.492 7.096-3 14.19-4.463 21.291-.262 1.271-.348 2.579-.82 4.432-2.731 2.138-5.157 3.714-7.583 5.29 1.28-4.076 2.559-8.151 4.17-12.837.236-1.777.14-2.945.043-4.112-.022-2.714-.044-5.429-.134-8.59.142-.929.353-1.41.898-2.327.195-1.343.056-2.251-.115-3.493.022-.775.074-1.218.374-1.868.133-1.393.018-2.579-.135-4.095.02-.768.08-1.206.424-1.704.991-.704 1.695-1.349 2.69-1.706.432 2.191.797 4.112.658 5.996-.226 3.086 1.199 4.052 3.993 3.723"></path><path fill="#f4b368" d="M310 180.994c-.704.644-1.408 1.289-2.53 1.728-.5-.385-.581-.564-.662-.744.1-1.057.199-2.114.52-3.845 4.036-10.826 7.852-20.98 11.668-31.132.231-.485.463-.97.866-1.659 1.561-1.692 2.95-3.18 4.314-4.64-.382 11.948-.757 23.676-1.433 35.853-.302.45-.786.436-1.06.15-.89-7.737-1.505-15.187-2.12-22.637l-1.802.106c-.479 1.492-.777 3.074-1.467 4.461-3.517 7.063-6.429 14.276-6.294 22.359"></path><path fill="#d51d43" d="M130.848 252.099c-.922.042-1.464-.022-2.31-.357-.043-.754.218-1.239.822-1.878 3.21-1.536 7.23-.69 8.386-5.273 1.415-5.614 3.474-11.067 5.255-16.59l2.693-2.303c1.165 2.16 2.005 3.716 3.23 5.348-.374 2.054-1.565 3.98-1.812 6.019-.776 6.416-4.085 10.347-10.341 11.952-1.241.319-2.338 1.199-3.885 1.901l-.429.09c-.41.327-.82.655-1.61 1.09"></path><path fill="#fcb453" d="M243.098 134.065c-.017-1.408-.035-2.815.364-4.717.463-3.11.51-5.726.927-8.344 2.119-.67 3.868-1.337 5.91-1.786.754 2.409 1.215 4.6 1.453 6.958.23.728.683 1.29 1.16 1.853.025.003.07-.018.056.395-.307 3.807-.6 7.202-1.305 10.59-2.301.906-4.192 1.818-6.538 2.95.093.079-.527-.454-1.144-1.4a244 244 0 0 0-.883-6.5"></path><path fill="#ab1c4f" d="M163.128 249.099c-1.827-.735-3.274-1.394-5.932-2.603 8.014-.899 12.755-9.517 20.672-4.722-2.925 6.097-6.982 10.046-14.74 7.325"></path><path fill="#f6ba64" d="M242.992 133.99c.401 2.103.696 4.132.72 6.778-4.485 8.106-9.142 9.52-17.057 6.631-7.033-2.566-7.725-8.438-8.653-14.847.926-4.148 1.853-7.852 2.873-11.287.175.44.256.611.337.783-.067.74-.135 1.48-.456 2.893-.43 3.477-.81 6.285-.747 9.084.167 7.373 5.394 12.726 12.052 12.573 5.958-.138 10.276-5.337 10.569-12.728 0 0 .255.047.362.12"></path><path fill="#fdf6f0" d="M318.645 147.03c-3.465 10.124-7.281 20.277-11.355 30.705-1.616-7.937-1.731-16.012 4.578-22.442 2.197-2.238 2.733-3.764.784-6.253-.62-.791-.489-2.17-.7-3.281 1.076.42 2.123.982 3.24 1.22.994.213 2.065.069 3.453.052"></path><path fill="#fef5da" d="M242.323 133.989c.014 7.272-4.304 12.471-10.262 12.609-6.658.153-11.885-5.2-12.052-12.573-.063-2.799.316-5.607.773-8.712.586 2.573 1.066 5.44 1.165 8.322.201 5.85 5.63 11.395 11.218 10.063 2.638-.63 4.666-4.038 6.832-6.318.864-.91 1.357-2.171 2.326-3.391M214.817 81.968c-2.797-2.988-5.508-6.404-8.971-10.768-.863 7.854-1.598 14.549-2.62 21.513-.591-2.771-1.392-5.862-1.094-8.842.615-6.14 1.817-12.222 2.784-18.366 3.21 3.926 6.234 7.294 8.826 10.967.925 1.31.805 3.358 1.075 5.496"></path><path fill="#ebedf4" d="M203.145 307.33c2.262.334 4.665 1 7.458 1.668 2.464 5.655 1.174 11.195 1.04 16.774l-1.428.047a9926 9926 0 0 0-7.07-18.488"></path><path fill="#fdf5f2" d="M73.995 301.245c.064-.38.513-.29.737.08.41.79.596 1.207.7 1.933.348.995.777 1.682 1.196 2.724 1.383 3.281 2.776 6.207 4.192 9.44.386.775.75 1.243 1.098 1.677-.014-.033-.073.01-.067.327.045.739.084 1.16.123 1.58-1.943-.739-3.926-1.395-5.81-2.263-.658-.303-1.489-1.098-1.536-1.722-.334-4.458-.487-8.93-.633-13.776"></path><path fill="#fdf6f0" d="M268.997 22.893c.175-.529.35-1.058.765-1.742 1.52.835 4.023 2.053 3.887 2.778-1.157 6.203-.568 13.053-6.086 18.029-.415-.107-.49-.268-.502-1.073.388-3.037.71-5.43 1.034-7.824 0 0-.088-.034.269-.179 1.312-2.498 2.514-4.796 3.066-7.24.158-.698-1.57-1.82-2.433-2.749"></path><path fill="#f6ba64" d="M244.02 121.006c-.047 2.616-.095 5.231-.482 7.927-.44-.07-.54-.22-.639-1.03-.3-2.742-.6-4.823-.9-6.904-.046-2.353-.093-4.705-.128-7.876-.277-2.257-.565-3.695-.853-5.132-.007-.743-.015-1.485.254-2.695.49-.746.702-1.025 1.314-1.283 1.07 1.275 2.324 2.537 2.308 3.782-.057 4.407-.548 8.808-.874 13.211"></path><path fill="#fdf6f0" d="M306.182 321.236c-1.741 2.9-2.919 6.458-5.357 8.54-3.5 2.99-7.918 4.904-12.393 7.24-.45-.037-.587-.177-.536-.374s.16-.589.496-.657c6.1-5.035 11.864-10 17.67-14.914.043.053.12.165.12.165"></path><path fill="#a6144f" d="M124.326 285.074s-.075-.178-.129-.258c1.162-1.735 2.377-3.39 3.997-5.436.58-.692.758-.994.936-1.297 0 0-.047-.015-.033.006 6.22-2.453 12.397-5.086 19.187-3.39-7.37.352-13.904 2.246-19.577 7.432a232 232 0 0 0-4.381 2.943"></path><path fill="#fdf6f0" d="M321.04 297.046c.016 2.937.822 6.249-.354 8.545-1.344 2.622-4.452 4.34-7.23 6.44-.435-.01-.58-.138-.523-.493a55 55 0 0 1 2.961-5.596c1.795-3.17 3.34-6.142 4.885-9.115 0 0 .174.145.26.219"></path><path fill="#fef5da" d="M221.542 121.967c-.41-.09-.492-.262-.577-1.14 0-3.081.005-5.456.062-8.273-.08-2.797-.212-5.153-.344-7.508 0 0 .288-.037.433-.02.721 1.019 1.532 1.959 1.824 3.039.545 2.022.373 4.325 1.249 6.153 1.667 3.484-.05 5.572-2.647 7.749"></path><path fill="#fdf5f2" d="M131 173c-1.45-.087-2.901-.172-4.986-.294l1.393-9.116 1.645-.285c.648 2.952 1.297 5.905 1.946 9.277 0 .42.002.418.003.417M161.86 123.74a12 12 0 0 1-1.407.343c-.64-2.111-.991-4.234-1.5-7.319 3.177 1.132 4.94 1.761 7.139 2.623.557.418.723.55.93.627 0 0-.028-.007-.084.164-.056.17-.12.554-.12.554-.945.462-1.89.925-3.275 1.719-.853.65-1.268.97-1.682 1.288"></path><path fill="#fdf6f0" d="M275.066 342.981c1.4-1.011 2.974-1.724 4.767-2.687.219-.251.214-.202.52-.202.8-.33 1.295-.659 1.746-1.006-.043-.018-.053.075.26.065a6.9 6.9 0 0 0 1.738-1.068c-.047-.023-.006.075.327.032a58 58 0 0 0 3.421-1.276l.208.21c-1.323 1.954-2.716 3.837-3.73 5.209-3.342.376-6.212.7-9.257.723M306.435 181.992c.454.166.535.345.748.79.073.703.015 1.14-.112 2.296a74 74 0 0 0-.007 3.916 8.4 8.4 0 0 1-.343 1.672c-.186.344-.62.363-.62.363-4.4-5.382-4.407-6.757.334-9.037"></path><path fill="#fef5da" d="M220.25 96.775c-1.93-3.855-3.576-7.948-5.218-12.413 4.697 2.556 5.72 7.094 5.217 12.413"></path><path fill="#fdf6f0" d="M267.786 62.04c-.024-.43-.048-.858-.021-1.973.107-1.477.162-2.267.217-3.057 1.166 3.85 2.332 7.7 2.972 11.615-1-.498-1.475-1.062-1.95-1.626a23 23 0 0 1-.18-1.917c-.354-1.449-.696-2.246-1.038-3.042M266.48 337.052c.053 1.392-.34 2.825-.543 4.286-.35 2.524.868 3.291 3.625 2.652-1.571.637-3.568 1.245-5.565 1.854l-1.219-1.743c1.114-2.331 2.228-4.663 3.702-7.049"></path><path fill="#fdf5f2" d="M155.841 127.95c.325.325.324.5-.038 1.038-1.128 1.933-1.895 3.502-2.66 5.072-.397.15-.793.302-1.495.53-2.17-6.006-1.531-7.057 4.193-6.64"></path><path fill="#fdf6f0" d="M268.825 302.19c.65 4.15 1.007 8.526 1.249 13.353-.763-.635-1.934-1.707-1.963-2.808-.093-3.433.247-6.877.714-10.545M245.989 254.28c1.603 1.187 3.175 2.688 4.916 4.481.486 1.051.802 1.81 1.162 2.883a78 78 0 0 1-6.078-7.363M313.095 312.085c-.499 4.1-1.804 7.627-6.543 9.084-.37.067-.447-.045-.306-.377 2.304-3.187 4.466-6.043 6.63-8.899 0 0 .145.129.22.192"></path><path fill="#fdf5f2" d="M84.806 322.19c1.24 1.74 2.478 3.48 3.803 5.527-3.437-.535-6.698-1.619-5.575-6.427.943.222 1.358.56 1.772.9M70.814 288.18c.887 2.214 1.487 4.641 2.014 7.45-5.238-.864-3.076-4.253-2.014-7.45"></path><path fill="#f7e389" d="M167.204 120.82c-.386-.088-.322-.472-.262-.657.545-.465 1.03-.746 1.754-1.173 1.779-.372 3.318-.597 6.236-1.025-1.881 2.343-2.948 3.671-4.323 5.104-1.212-.65-2.116-1.406-3.405-2.249"></path><path fill="#fef5da" d="M243.665 44.866c.31-.125.597-.026.744-.008.214.422.28.825.013 1.671a286 286 0 0 0-3.426 5.472c-.325-.774-.65-1.549-.977-2.66 1.11-1.674 2.223-3.012 3.646-4.475"></path><path fill="#fdf5f2" d="M96.995 336.53c2.593 1.372 5.19 3.107 7.98 5.12-.005.297-.207.318-.71.372-4.05.237-5.995-1.99-7.27-5.491"></path><path fill="#fdf6f0" d="M334.948 157.063c-.359 1.487-.743 2.586-1.127 3.685l-1.634-.272.605-5.058c.71.419 1.42.838 2.156 1.645M259.062 273.29c1.234 1.744 2.437 3.896 3.685 6.387-5.17.593-3.1-3.492-3.685-6.387M266.565 291.312c.96 2.443 1.68 5.164 2.35 8.274a53.5 53.5 0 0 1-2.35-8.274M299.785 122.472c-.15-1.591-.008-3.343.134-5.095l2.186.566c-.676 1.456-1.353 2.912-2.32 4.529"></path><path fill="#fef5da" d="M241.72 121.256c.58 1.824.88 3.905 1.069 6.399-.523-1.773-.936-3.957-1.069-6.4"></path><path fill="#fdf6f0" d="M256.163 267.989c1.176 1.318 2.04 2.791 2.933 4.595-2.93.023-3.972-1.602-2.933-4.595M266.801 55.07c.007-.437.014-.873.082-2.053-.034-1.882-.13-3.021-.226-4.16 0 0 .245.039.344.113.558 1.914 1.017 3.753.91 5.833-.748.25-.93.258-1.11.267"></path><path fill="#fdf5f2" d="M90.095 330.076c1.69 1.119 3.339 2.64 5.15 4.463-3.128.694-5.036-.607-5.15-4.463"></path><path fill="#fdf6f0" d="M262.662 19.003c.42 2.521-.423 3.675-3.329 2.136-.325-.584-.326-1.026.005-1.802.777-.336 1.221-.338 1.665-.34zM269.64 318.266c.191 1.893.123 4.027-.152 6.492-.175-1.863-.142-4.057.151-6.492"></path><path fill="#f7e389" d="M266.563 55.308c.419-.247.6-.255 1.05-.269.283.434.295.874.338 1.643-.024 1.118-.08 1.908-.272 3.073-.543-1.153-.948-2.68-1.116-4.447"></path><path fill="#fef5da" d="M240.743 108.222c.563 1.206.851 2.644 1.059 4.467-.561.18-1.041-.024-1.658-.46.016-1.413.17-2.595.599-4.007"></path><path fill="#a6144f" d="M84.867 322.13c-.475-.28-.89-.618-1.56-1.052-.292-.272-.327-.45-.479-1.092-.265-.758-.504-.92-.832-.949 0 0 .008-.027-.007-.029-.054-.422-.093-.843.24-1.59 1.188 1.294 2.004 2.914 2.82 4.534z"></path><path fill="#fdf6f0" d="M253.006 263.342c.925.753 1.838 1.896 2.829 3.35-.895-.778-1.868-1.87-2.829-3.35"></path><path fill="#fdf5f2" d="M133.075 158.98c.509-.592 1.02-.86 1.53-1.129l.011 2.243c-.513-.263-1.026-.526-1.54-1.113"></path><path fill="#f7e389" d="M268.763 67.185c.716.378 1.19.942 1.894 1.667.237.625.244 1.09.173 1.894-.822-.898-1.565-2.136-2.067-3.56"></path><path fill="#fdf6f0" d="M267.852 331.066c.202 1.137.035 2.313-.377 3.748-.161-1.063-.076-2.386.377-3.748"></path><path fill="#fdf5f2" d="M86.999 187.598c-.664-.665-1.005-1.378-1.346-2.091l1.316-.25c.117.764.235 1.528.03 2.34"></path><path fill="#fef5da" d="M221.33 102.76c-.585-.888-.92-1.994-1.16-3.46.534.84.973 2.042 1.16 3.46"></path><path fill="#fdf6f0" d="M287.205 87.192c.56-.245 1.058-.19 1.557-.137l-.34 1.343c-.426-.302-.852-.605-1.217-1.206M268.946 18.664c-.7.334-1.446.334-2.566.334.59-.222 1.555-.445 2.566-.334"></path><path fill="#f4b368" d="M306.134 191.35c-.033-.321.401-.34.618-.35.357.896.496 1.804.357 2.88-.5-.625-.72-1.417-.975-2.53"></path><path fill="#fdf5f2" d="M81.205 199.192c.56-.245 1.06-.191 1.558-.137l-.34 1.344c-.427-.303-.853-.606-1.218-1.207"></path><path fill="#fdf6f0" d="M303.494 126.668c.542.344.867.903 1.192 1.462l-.834.381c-.192-.542-.383-1.085-.358-1.843M295.987 115.537c-.398-.584-.495-1.164-.593-1.744l1.229.015c-.112.577-.224 1.155-.636 1.729"></path><path fill="#d92e44" d="M150.384 230.148a5.64 5.64 0 0 1 1.772-2.546c-.26.952-.877 1.69-1.772 2.546"></path><path fill="#fdfef9" d="M260.964 18.698c-.405.3-.849.303-1.626.307-.102-.519.128-1.039.36-1.56.408.319.817.636 1.266 1.253"></path><path fill="#fdf5f2" d="M72.916 298.086c.505.355.76.853.958 1.637-.44-.308-.824-.9-.958-1.637"></path><path fill="#fdf6f0" d="M302.464 177.61c-.115.449-.398.723-.698.977-.008.007-.212-.22-.325-.338.285-.272.57-.544 1.023-.639M332.045 205.396c.241.395.24.788.21 1.18-.001.01-.306-.002-.47-.004.005-.393.01-.786.26-1.176"></path><path fill="#fdf5f2" d="M98.465 161.61c-.116.449-.399.724-.7.978-.007.006-.211-.22-.324-.339.285-.272.57-.544 1.024-.64"></path><path fill="#fdf6f0" d="M268.677 327.28c.2.742.117 1.746-.218 3.045-.19-.731-.127-1.756.218-3.044M264.996 286.317c.311.173.625.629.894 1.37-.328-.171-.61-.63-.894-1.37"></path><path fill="#d92e44" d="M152.968 227.438c.022-.37.287-.856.902-1.353.014.405-.323.82-.902 1.353"></path><path fill="#fdf6f0" d="M271.125 343.945q.326-.428 1.545-.758-.326.428-1.545.758M263.031 281.218q.437.294.86 1.502-.438-.293-.86-1.502M263.96 283.393c.301.161.618.589.875 1.295-.326-.157-.592-.593-.875-1.295"></path><path fill="#f7e389" d="M166.952 119.876c-.137.06-.303-.07-.47-.4.12-.027.267.11.47.4"></path><path fill="#fdf5f2" d="M82.05 319.232c.274-.166.513-.004.648.514-.274.115-.467-.067-.647-.514"></path><path fill="#d01e4e" d="M132.381 251.09c.076-.083.12-.09.13-.11.008-.019-.205.192-.13.11"></path><path fill="#e3e4ee" d="M128.872 278.17q.12.323-.533.91-.12-.324.533-.91"></path><path fill="#a6144f" d="M175.76 302.731c.16.256-.027.603-.193.907.036.632.238.959.44 1.286 0 0 .006.076.05.447.28 1.58.516 2.79.751 4-.067.886-.135 1.773-.31 3.274-.424 2.198-.74 3.782-1.054 5.366-1.197 3.308-2.393 6.616-3.921 10.057-.332.133-.463-.002-.51-.423-.19-1.321-.335-2.223-.352-2.325-2.156.254-3.917.462-5.678.338.007-.774.012-1.216.32-1.806 1.346-.95 2.65-2.633 3.39-2.414 4.805 1.429 4.564-2.48 4.805-4.8.548-5.254.44-10.577.6-15.872.5.57 1 1.14 1.661 1.965"></path><path fill="#e3e4ee" d="M175.793 317.898c-.034-1.47.281-3.055.81-4.933-.01 1.41-.235 3.115-.81 4.933M176.887 308.943c-.314-.782-.55-1.992-.792-3.577.16-.37.327-.367.742-.327.209 1.183.169 2.33.05 3.904"></path><path fill="#a6144f" d="M177.864 320.578c-.037-.028-.094.031-.089-.009s-.012.04.02.067.105-.029.069-.058"></path><path fill="#b1144d" d="M174.116 300.572c-.178 5.49-.07 10.812-.618 16.066-.241 2.32 0 6.229-4.805 4.8-.74-.22-2.044 1.464-3.638 2.21.607-3.92 1.767-7.786 2.934-12.104-.002-7.726-.096-14.972-5.203-20.957-4.546-5.326-9.88-9.9-17.013-10.319-5.54-.325-11.182 1.082-16.779 1.719 5.386-5.042 11.92-6.936 19.562-6.981.608.01.785.018 1.411.406 2.058.692 3.667 1.004 5.276 1.316 0 0-.027-.079-.052.318 1.955 1.226 3.935 2.054 5.916 2.882 0 0-.09.042-.059.356 2.426 3.37 4.874 6.385 7.194 9.495 1.726 2.313 3.286 4.75 4.92 7.133 0 0-.094.045-.107.35.314 1.117.64 1.93.967 2.742 0 0 .113.374.094.568"></path><path fill="#a6144f" d="M173.241 296.605c-1.713-2.075-3.273-4.513-4.999-6.826-2.32-3.11-4.768-6.125-7.168-9.537 6.243 3.499 10.193 9.07 12.167 16.363M160.945 279.625a21.7 21.7 0 0 1-5.714-2.589c1.895.49 3.724 1.389 5.714 2.59M155.038 276.442c-1.404-.026-3.013-.338-4.816-.952 1.407.02 3.009.343 4.816.952M174.18 299.785c-.484-.593-.811-1.406-1.107-2.572.442.549.853 1.45 1.106 2.572"></path><path fill="#fdcb53" d="M275.25 83.834c.252.197.448.44.661 1.329 1.395 3.02 2.718 5.44 4.04 7.859 1.658 3.42 3.315 6.838 4.625 10.578-1.848-.234-3.348-.788-4.89-1.358l-1.456 4.5c-2.422-1.273-5.524-3.827-6.406-3.21-4.734 3.314-6.879-.118-9.54-2.745-1.008-.994-2.135-1.868-3.335-3.007-.329-.483-.587-.679-.912-1.19-2.73-8.92-6.081-17.33-5.026-26.585l4.095 4.447-.672 1.465 8.501-.655c2.648 6.307 3.143 6.566 7.705 3.795.348-.06.39-.143.355.136-.062.464-.09.649-.263.932-.013.354.12.609.394 1.148a50 50 0 0 0 2.124 2.561"></path><path fill="#fcd057" d="M239.308 86.898c-.067-6.962-.135-13.924.135-21.37.72-.51 1.1-.539 1.481-.568 1.387.882 2.796 1.73 4.152 2.656 1.086.742 2.106 1.578 3.552 2.818a92 92 0 0 1-1.1 14.599c-1.076 1.003-1.69 2.066-2.55 2.865a16.9 16.9 0 0 1-3.966 2.732c-.583-1.485-1.143-2.608-1.704-3.732"></path><path fill="#f9ab2b" d="M247.88 84.975a1755 1755 0 0 0 1.139-14.533c.48-1.978.967-3.52 2.043-5.265 1.031-.188 1.473-.17 1.914-.154.004 1.384.007 2.768.023 4.567-1.043 9.67 2.307 18.08 4.678 26.952-.992-.7-1.952-1.665-2.22-2.793-1.029-4.317-3.49-5.424-7.455-4.156z"></path><path fill="#f7e389" d="M240.997 52.35a38 38 0 0 1 3.392-5.513c.394 1.338.486 2.81.575 4.72-1.063 1.1-2.123 1.761-3.499 2.476-.365-.409-.416-.87-.468-1.683M266.298 48.903c.455 1.093.55 2.232.538 3.79-1.09.368-2.072.317-3.423.24-.476-2.128-.436-4.124 2.885-4.03M240.941 64.515c-.398.474-.779.503-1.444.554-.336-1.387-.389-2.797-.185-4.854.736-1.835 1.216-3.021 1.695-4.208-.016 2.688-.033 5.375-.066 8.508"></path><path fill="#fef5da" d="M241.01 55.66a25 25 0 0 1-1.683 4.132c.132-1.748.506-3.72 1.214-5.773.38.38.426.838.469 1.642"></path><path fill="#fdcb53" d="M252.986 64.652c-.451.354-.893.337-1.665.298-.178-1.161-.025-2.3.128-3.438l.916-.046c.21.938.42 1.877.62 3.186"></path><path fill="#f7e389" d="M267.568 62.243c.56.593.902 1.39 1.155 2.535-.517-.545-.944-1.439-1.155-2.535M271.661 75.199c.562.298.914.768 1.229 1.551-.505-.25-.972-.815-1.229-1.551"></path><path fill="#fdc151" d="M259.077 97.99c1.072.93 2.199 1.803 3.206 2.797 2.662 2.627 4.807 6.06 9.541 2.746.882-.618 3.984 1.936 6.406 3.208l1.456-4.5c1.542.57 3.042 1.125 4.899 1.717.356.038.548.374.503.973-.228 2.265-.412 3.93-.641 6.008l3.01-1.177c.511.872 1.022 1.743 1.541 3.296.678 2.104 1.348 3.527 2.018 4.95.08.33.159.66.211 1.549.268.844.563 1.128.859 1.411 0 0-.073.016.008.196.22.457.432.66.716.786.149.63.298 1.26.351 2.654-.967 3.469-1.839 6.174-2.768 9.057-1.098-.862-2.27-2.364-2.876-2.163-4.48 1.486-5.484-2.733-7.917-4.534-1.242-.92-2.385-1.973-3.844-3.149-2.076-2.07-3.882-3.96-5.738-6.198-2.092-3.674-4.222-6.947-6.145-10.337-1.718-3.029-3.206-6.188-4.796-9.29"></path><path fill="#fa6941" d="M301.72 222.124c2.782-1.687 5.208-3.263 7.928-4.995 2.105-1.203 3.87-2.343 5.737-3.278 4.85-2.427 7.546-.784 7.612 4.568.024 1.986.003 3.973.003 5.96l1.603.018c.556-4.91 1.113-9.82 1.893-15.054.942 4.738 1.662 9.8 2.1 15.497-1.05 2.144-1.817 3.655-2.958 5.12-2.029-.65-3.649-1.614-5.347-1.782-3.027-.299-6.126.124-9.149-.192-4.388-.459-8.779-2.061-13.09-1.814-7.055.404-11.715-2.99-15.705-7.484-2.247.458-4.266.869-6.298.846-.016-2.465-.019-4.495.343-6.532 1.332-.793 2.3-1.578 3.267-2.364-1.21-.55-2.418-1.098-3.633-2.05.32-2.133.645-3.862 1.333-5.553 2.044.975 3.726 1.913 5.998 3.18.599-2.099.892-4.032 1.694-5.725 1.218-2.571 2.79-4.975 4.21-7.45-1.345 5.969-3.422 11.883-3.871 17.92-.748 10.047 6.436 14.798 16.33 11.164"></path><path fill="#fcb453" d="M276.028 123.997c1.187.994 2.33 2.048 3.572 2.967 2.433 1.8 3.437 6.02 7.917 4.534.606-.201 1.778 1.301 2.876 2.163.93-2.883 1.801-5.588 2.706-8.736 4.77 7.445 5.473 16.285 5.716 25.871-1.82 3.438 1.447 9.532-5.737 7.797-2.368-6.134-4.693-11.873-7.06-17.968a133 133 0 0 0-4.232-7.421c-1.892-3.086-3.836-6.14-5.758-9.207"></path><path fill="#f9763c" d="M289.536 192.843c-1.696 2.672-3.267 5.076-4.485 7.647-.802 1.693-1.095 3.626-1.694 5.726-2.272-1.268-3.954-2.206-5.999-3.646-.023-6.19.317-11.878.942-17.845 1.088-4.094 1.89-7.91 2.969-11.5.998 6.464 5.238 9.216 10.798 11.155.214.645.332.892.449 1.139-.902 2.376-1.805 4.752-2.98 7.324"></path><path fill="#faa956" d="M292.793 185.313c-.394-.04-.512-.288-.692-1.35.266-8.198.595-15.579.93-23.297.033-.783.062-1.23.09-1.678 7.141 1.34 3.875-4.754 5.638-7.745 1.541 11.673-.254 23.088-5.966 34.07"></path><path fill="#f7e389" d="M279.944 92.66c-1.315-2.057-2.638-4.476-3.95-7.278 1.322 2.05 2.633 4.483 3.95 7.277"></path><path fill="#fdcb53" d="M287.402 109.408c-.809.692-1.673 1.03-2.955 1.53.229-2.077.413-3.742.636-5.813.781 1.04 1.522 2.484 2.319 4.283"></path><path fill="#fcb453" d="M291.038 117.65c-.692-1.065-1.362-2.488-2.03-4.281.684 1.06 1.368 2.492 2.03 4.281"></path><path fill="#f7e389" d="M272.879 80.027c.027-.185.054-.37.161-.824.775 1.135 1.468 2.538 2.186 4.286-.637-.414-1.298-1.173-2.112-2.458-.153-.526-.235-1.004-.235-1.004"></path><path fill="#f4b368" d="M306.172 205.441c.213.79.31 1.958.165 3.328-.255-.848-.269-1.899-.165-3.328"></path><path fill="#fcb453" d="M292.03 120.66q-.36.039-.886-.86c.24-.027.534.263.885.86M292.795 121.71c-.269.113-.48-.089-.686-.58.291-.178.537.007.686.58"></path><path fill="#e3e4ee" d="M175.987 304.618c-.182-.021-.384-.348-.358-.793.265.084.302.285.358.793"></path><path fill="#ee4840" d="M276.027 213.01c.003 2.029.006 4.059.043 6.907.34 2.57.645 4.324.951 6.472.332 2.463.663 4.531.636 6.565-2.25-1.312-4.15-3.678-6.033-3.664-5.65.042-8.28-2.91-9.323-7.928l-3.335 3.622c.675-5.376 1.6-10.737 1.912-16.134.142-2.463-.93-4.995-1.727-8.82-3.641 2.671-6.126 4.951-9.004 6.495-3.953 2.12-8.205 3.683-12.736 5.486.81-2.674 2.028-5.35 3.84-9.332-4.095.906-7.275 1.61-11.12 2.034-1.301-.421-2.04-.847-2.559-.66-10.96 3.914-21.145-3.573-31.932-2.162-.73.096-1.698-.297-2.303-.779-5.259-4.191-10.39-2.293-15.726-.092-1.2.495-3.061-.617-4.25-1.006 6.89-1.951 9.494-7.286 11.995-13.065 2.977-3.2 5.768-5.385 9.994-2.415.83.584 2.25.472 3.392.443 7.041-.181 14.488-2.57 20.265 3.888.183.204.623.208.95.251 7.33.966 14.663 1.91 21.99 2.894 1.762.236 4.207-.021 5.126 1.019 2.575 2.916 4.804 2.134 7.393.434.316-.208.925.03 1.588.075l1.708 4.205c4.174-1.63 5.457.285 5.269 4.214-.15 3.133-.03 6.278-.03 9.418l1.77-.026c.076-1.69-.1-3.44.29-5.054.506-2.093.974-5.232 2.349-5.813 1.666-.704 4.262.793 6.845 1.434l-3.745 5.164c2.107 1.125 3.795 2.026 5.486 3.302.012 1.126.022 1.877.031 2.627"></path><path fill="#ec3f43" d="M172.993 200.03c1.557.373 3.419 1.485 4.618.99 5.337-2.201 10.467-4.1 15.726.092.605.482 1.573.875 2.303.78 10.787-1.412 20.973 6.075 31.932 2.16.52-.186 1.258.24 2.165.672-5.632 4.386-11.494 8.542-17.477 12.515-1 .663-2.536.766-3.812.724-7.914-.259-15.826-.617-23.736-.998-.764-.037-1.728-.236-2.23-.733-4.513-4.462-8.942-9.007-13.205-14.034.37-1.064.548-1.62 1.1-2.184 1.121.002 1.868.01 2.616.016"></path><path fill="#eb3742" d="M157.4 220.959c-6.072 2.097-11.542 1.053-17.278-.19-2.07-.448-4.912 2.669-7.723 3.848 1.659-4.074 3.639-7.837 5.916-11.623.765-.346 1.233-.667 2.057-1.03 1.01-.508 2.075-.854 2.253-1.46 1.348-4.604 4.807-4.77 8.686-4.543 3.22.188 6.46.037 9.69.037l2.81 12.91c-2.664.886-4.341 1.444-6.41 2.05"></path><path fill="#ec3f43" d="M161.002 205.575c-3.231.423-6.47.574-9.69.386-3.88-.226-7.339-.061-8.687 4.544-.178.605-1.243.951-2.258 1.207-.365-.378-.367-.546-.326-1.095 1.348-7.127 2.652-13.873 4.385-20.618 6.612 1.5 14.023-.27 18.184 6.68.17.282.937.207 1.697.43 1.079.72 1.886 1.308 2.693 2.231l-.005 1.67c-2.863.13-6.7-1.152-5.993 4.565"></path><path fill="#ee4840" d="M167.161 201.254c-.165-.689-.163-1.134.159-1.893 1.108.012 1.896.335 2.683.66-.178.556-.356 1.113-.783 1.838-.797-.009-1.345-.185-2.059-.605"></path><path fill="#fe7436" d="M151.042 152.014c1.765-3.9 3.53-7.801 5.99-11.86 2.436.178 4.178.512 5.92.846.35 1.091.701 2.183 1.057 4.007.524 5.495 3.511 6.956 7.914 7.035 7.619.138 15.21.501 21.68-4.686.545-.437 1.593-.248 2.269-.034-2.724 4.767-5.31 9.22-8.258 13.72-1.986 2.657-3.606 5.269-5.619 8.511-2.172-2.39-3.59-5.363-5.703-5.989-4.92-1.456-10.173-1.781-15.299-2.918-.155-.955-.302-1.558-.368-1.825-1.78.762-3.326 1.652-4.99 2.08-2.171.56-4.437.754-6.661.676l.011-5.599s.484-.02 1.011.179c1.724.48 3.836 1.224 3.966.967.758-1.5 1.051-3.235 1.501-4.89z"></path><path fill="#faba5b" d="M220.975 112.996c-.005 2.375-.01 4.75-.104 7.563-1.016 4.141-1.943 7.845-3.242 11.993-1.119.442-1.864.44-2.614-.022.494-7.869-.52-14.86-4.736-20.656l-9.314 19.114c-1.32.355-2.863.395-3.914 1.134-1.967 1.384-3.649 3.173-5.827 4.798 2.634-8.396 5.645-16.797 8.983-25.727.437-.875.547-1.219.656-1.563.051-.971.102-1.943.517-3.31.433-1.046.502-1.695.571-2.345.267-1.104.533-2.209.869-3.648 1.143-1.135 2.217-1.935 3.717-3.052v7.495c5.485-1.165 5.984 3.288 8.004 6.68l.895-6.084c1.445 1.336 2.645 2.444 4.204 3.961.685 1.495 1.01 2.582 1.335 3.669"></path><path fill="#fc8a31" d="M200.941 131.341c3.082-6.628 6.14-12.904 9.338-19.467 4.216 5.797 5.23 12.787 4.719 21.045-.65 3.257-1.286 5.665-1.945 8.408-.016.782-.01 1.23-.016 2.013-.036.781-.058 1.228-.418 1.615-.765-1.024-1.191-1.99-1.617-3.378.42-4.104-.983-6.06-4.916-5.573-2.393.297-4.78.634-7.17.953.667-1.754 1.334-3.508 2.025-5.616"></path><path fill="#fd7e33" d="M198.587 137.02c2.718-.382 5.106-.72 7.5-1.016 3.932-.487 5.335 1.47 4.655 5.466-.757.053-1.253-.209-1.8-.798-2.006.054-4.216-.01-5.863.923-2.557 1.448-4.731 3.573-7.068 5.412-.815.101-1.863-.088-2.408.349-6.47 5.187-14.061 4.824-21.68 4.686-4.403-.08-7.39-1.54-7.91-6.684 10.935 9.349 23.944 4.04 30.556-4.384 1.099-1.4 2.453-2.598 4.018-3.953"></path><path fill="#f89454" d="M148.768 155.713c.214 1.988.21 3.711.063 6.198-2.873 7.139-3.719 14.51-9.835 18.68.596-3.653 1.193-6.893 1.79-10.133.052-.626.104-1.252.632-2.251.823-1.7 1.17-3.027 1.515-4.354.568-2.76 1.135-5.519 2.086-8.612.383-.334.852-.353.852-.353.893.186 1.786.373 2.897.825"></path><path fill="#fa6941" d="M150.889 152.326c1.627-.239 3.1-.166 4.574-.093-.45 1.656-.743 3.39-1.5 4.89-.13.258-2.243-.486-3.725-.97-.024-1.306.237-2.41.65-3.827"></path><path fill="#f7e389" d="M145.9 154.516c-.029.372-.498.391-.731.37a180 180 0 0 1 5.109-14.986c-1.251 4.652-2.8 9.448-4.379 14.616"></path><path fill="#fc8a31" d="M162.967 140.59c-1.757.076-3.499-.258-5.634-.604 1.065-1.307 2.523-2.603 3.98-3.899.556 1.365 1.112 2.73 1.654 4.503"></path><path fill="#f7e389" d="M153.487 133.995c.421-1.505 1.188-3.074 2.27-4.75-.431 1.491-1.178 3.088-2.27 4.75M168.811 125.19c.175.803.015 1.593-.376 2.58-.14-.733-.049-1.662.376-2.58M167.804 134.18c.526.328.829.807 1.09 1.587-.465-.278-.89-.856-1.09-1.586M162.173 123.788c.102-.368.517-.687 1.19-1.07-.12.33-.499.725-1.19 1.07"></path><path fill="#cd0649" d="M167.981 311.997c-1.16 3.865-2.319 7.73-3.23 11.799.244.646.239 1.088-.113 1.9-3.774 4.015-7.2 7.658-10.628 11.302-.445.008-.89.016-2.05.026-4.126 1.335-7.538 2.67-10.95 4.003-.444.002-.889.003-2.02.003-1.46.647-2.234 1.296-3.007 1.944-4.7-.321-9.401-.643-14.709-1.212-1.164-.405-1.722-.562-2.28-.719-4.832-1.52-10.195-2.179-14.37-4.76-6.218-3.845-11.597-9.046-17.188-14.263.284-2.044.312-3.515.58-4.941.95-5.036 1.98-10.056 3.334-15.12 2.197-.708 5.487-2.223 5.664-1.919 2.37 4.056 6.567 2.972 9.98 4.21.004.248.01.745.05 1.122.736 5.776 4.238 9.216 9.043 10.29 4.172.934 8.046-1.168 10.452-5.119.136-.224.576-.264.874-.39 4.88 2.062 9.889 3.09 14.94 3.825 6.68.972 13.394 1.713 20.705 2.63z"></path><path fill="#e7134e" d="M107.003 304.995s-.005-.497-.047-1.112c-2.128-5.96-4.214-11.303-6.299-16.645-5.312 2.47-8.439 7.22-9.66 14.758-1 5.027-2.032 10.047-2.98 15.083-.27 1.426-.297 2.897-.72 4.636-.722.275-1.158.26-1.921.241-1.143-1.624-1.959-3.244-3.152-4.856-.379.008-.32-.034-.31-.324-.366-.748-.741-1.205-1.116-1.662-1.394-2.925-2.787-5.851-4.074-9.465-.333-1.359-.771-2.029-1.21-2.699a8 8 0 0 1-.554-1.6c1.313-5.483 2.503-10.652 3.967-15.743 1.152-4.008 2.642-7.92 4.442-12.241 4.728-1.723 8.623-.644 12.82.63 5.407 1.642 11.187 2.057 16.807 3 .155 1.18.31 2.358.738 4.159 2.998 8.089 5.596 15.605 8.502 23.001 1.358 3.457.938 6.921-2.082 8.136-2.115.85-5.607-.55-7.978-1.86-2.089-1.153-3.476-3.575-5.173-5.437"></path><path fill="#b1144d" d="M154.376 336.995c3.061-3.64 6.488-7.284 10.261-10.966 2.107-.247 3.868-.455 6.024-.71.017.103.162 1.005.286 2.26-.847 1.072-1.573 1.993-2.522 2.464-1.514.75-3.176 1.2-4.943 1.062-2.913 1.963-5.826 3.925-9.106 5.89M141.24 341.292c3.182-1.599 6.594-2.933 10.387-4.258-2.1 3.926-4.95 6.978-10.387 4.258M136.336 342.979q.63-.982 2.32-1.939-.63.981-2.32 1.939M119.027 341.33c.525-.13 1.083.027 1.804.433-.482.118-1.126-.013-1.804-.432"></path><path fill="#f69363" d="M140.467 170.642c-.278 3.056-.875 6.296-1.612 10.244-.71 1.846-1.282 2.983-2.025 4.424-8.311 6.694-16.535 7.628-23.576.395-.687-.705-1.535-1.252-2.489-2.073-.715.304-1.25.808-2.038 1.507-1.447 1.407-2.638 2.62-4.17 3.877-1.715 1.125-2.943 2.553-4.497 3.205-2.158.905-4.561 1.228-6.86 1.801 5.45-7.669 10.883-15.35 16.365-22.996 1.057-1.474 2.307-2.808 3.55-4.534 3.324-3.032 6.564-5.737 9.804-8.442l.862.576c-.963 2.555-2.23 5.044-2.811 7.683-.73 3.317-1.41 6.793-1.173 10.134.26 3.665 2.485 6.526 6.386 7.403 4.153.934 7.182-1.244 9.36-4.305 1.888-2.654 3.097-5.791 4.924-8.9"></path><path fill="#fd384d" d="M74.993 252.001c.045-2.952.09-5.905-.232-9.074-.338-.62-.311-1.023.27-1.728 1.03-1.588 1.505-2.875 2.177-4.298.437-.355.615-.617 1.123-.872 1.337.333 2.352.999 3.211.837 6.25-1.18 11.943-.727 16.541 4.416.489.547 2.12.26 3.171.073 1.927-.341 3.816-.896 5.579-1.055-3.037 4.439-5.932 8.57-9.097 12.889-1.752 1.407-3.235 2.625-5.005 3.543-6.433-.48-12.559-.742-17.738-4.73"></path><path fill="#f77a63" d="M77.937 235.98c-.114.304-.292.566-.971.928-.754.208-1.073.232-1.396.215 4.356-11.764 8.642-23.555 13.122-35.272.983-2.57 2.656-4.875 4.26-7.565 2.547-.837 4.95-1.16 7.108-2.065 1.554-.652 2.782-2.08 4.49-2.855-2.972 5.078-6.28 9.848-9.86 14.821-4.092 7.06-7.912 13.919-11.719 20.784.013.008-.002-.001-.29.142-.757 1.057-1.224 1.971-1.714 3.252-1.025 2.782-2.027 5.198-3.03 7.614"></path><path fill="#f52e5b" d="M75.417 237.41c.476-.27.795-.294 1.353-.366-.234 1.28-.709 2.567-1.556 3.908-.394-.122-.416-.297-.166-.772.356-.402.532-.552.508-.598-.112-.216-.279-.402-.426-.599.045-.428.09-.857.287-1.573"></path><path fill="#f77a63" d="M73.47 244.964c.19.662.167 1.599-.133 2.762-.211-.679-.146-1.583.133-2.762M74.99 239.212c.287-.032.454.154.566.37.024.046-.152.196-.433.344-.221-.132-.247-.309-.133-.714"></path><path fill="#d21545" d="M272.965 295.018c-2.655-6.739-5.31-13.477-7.753-20.897 1.866-.989 4.757-1.934 4.979-1.503 1.894 3.672 5.135 1.974 8.116 2.531 5.561 6.538 12.466 10.34 20.126 13.1 3.688 1.33 6.983 1.031 9.54-1.84 2.384-2.678 4.272-5.799 6.829-9.351.432 5.707.82 10.832 1.052 16.314-.715 3.114-1.274 5.872-2.227 8.64-1.256 1.523-1.993 3.127-3.024 4.513-.707.951-1.822 1.6-2.754 2.384-.617-.97-1.233-1.94-1.71-2.963.046-.018-.046.018-.607.054-6.52-.968-13.138 2.187-19.02-2.315-.21.179-.682.631-1.201 1.018-4.778 3.552-4.78 3.24-6.627-2.51-.876-2.723-3.75-4.804-5.719-7.175"></path><path fill="#cc1147" d="M272.973 295.458c1.961 1.931 4.835 4.012 5.71 6.735 1.849 5.75 1.85 6.062 6.628 2.51.52-.387.99-.84 1.2-1.018 5.883 4.502 12.5 1.347 19.02 2.315 1.085.97 1.701 1.94 2.318 2.909.932-.784 2.047-1.433 2.754-2.384 1.03-1.386 1.768-2.99 3.023-4.265.392.237.38.732.212.821-.234.198-.38.366-.35.405.143.193.332.352.565.886.57.831 1.08 1.3 1.591 1.767-.884 1.682-1.769 3.363-2.711 5.4-2.22 3.21-4.383 6.066-6.73 9.2-5.947 5.245-11.71 10.21-18.197 15.227-1.787.764-2.85 1.478-3.915 2.192 0 0-.041-.098-.32-.094-.761.369-1.243.733-1.725 1.097 0 0 .01-.093-.268-.096-.762.34-1.247.684-1.731 1.027 0 0 .005-.05.02-.03-5.821.424-3.862-3.933-4.01-6.794-.453-8.778-.59-17.575-1.159-26.344-.24-3.701-1.255-7.352-1.925-11.466"></path><path fill="#d51d43" d="M278.002 274.999c-2.676-.407-5.917 1.291-7.811-2.381-.222-.431-3.113.514-4.986 1.113-3.47-3.846-6.721-7.984-10.118-12.437.12-1.107.385-1.9 1.05-3.213 3.458-5.444 6.432-10.425 9.636-15.253.748-1.128 2.365-3.173 3.256.617.658 6.148 1.33 11.848 2.027 17.909 2.333 4.788 4.64 9.216 6.946 13.645"></path><path fill="#fe4a47" d="M82.958 224.964c3.82-6.858 7.64-13.716 12.164-20.77 4.064-.352 7.295-.489 9.38 3.121.439.757 2.897 1.22 3.759.705 3.397-2.032 6.04-.813 8.573 1.354 3.072 2.628 6.217 4.343 10.208 1.847.287-.18.893.148 1.472.265v5.17c3.585-1.383 6.535-2.52 9.487-3.655l.017.017c-1.98 3.762-3.96 7.525-5.97 11.636-1.618 1.623-3.209 2.896-4.8 4.17-1.033-1.607-2.465-3.085-3.031-4.842-2.28-7.078-8.337-9.29-15.295-13.104.816 5.13 1.387 8.72 1.6 12.723-3.502.212-6.648.023-9.792-.192-1.302-.088-2.625-.456-3.895-.31-4.635.533-9.252 1.23-13.877 1.865m11.402-6.406-1.16 2.652 1.255.312c.11-.827.22-1.654-.095-2.964"></path><path fill="#ea2a4a" d="M98.006 253c2.895-4.13 5.79-8.261 8.87-13.056 1.163-2.759 2.14-4.853 3.116-6.948 4.67.935 7.425-1.05 8.114-6.175 1.2.737 2.128.978 2.448 1.556 3.294 5.964 6.792 6.514 14.671 2.988 2.368-1.06 4.684-2.233 7.4-3.36-1.405 5.519-3.464 10.972-4.88 16.586-1.155 4.584-5.175 3.737-8.689 5.143-1.447.772-2.248 1.52-3.048 2.268-.492.588-.984 1.175-1.895 1.571-2.025-2.873-3.63-5.554-5.235-8.235l-1.093-.045-.78 5.712s-.005-.005-.378.036c-1.945.117-3.734.715-5.046.169-3.534-1.47-6.63-1.126-9.822.826-1.054.644-2.49.66-3.753.964"></path><path fill="#fe4149" d="M109.994 232.573c-.978 2.518-1.955 4.612-2.976 7.063a26.6 26.6 0 0 1-5.764 1.72c-1.05.186-2.682.473-3.17-.074-4.6-5.143-10.292-5.596-16.542-4.416-.859.162-1.874-.504-3.21-.837.608-2.466 1.61-4.882 2.983-7.717.798-1.393 1.226-2.368 1.654-3.342 0 0 .015.009.002.001 4.612-.642 9.229-1.339 13.864-1.872 1.27-.146 2.593.222 3.895.31 3.144.215 6.29.404 9.834.593.076 2.709-.246 5.429-.57 8.571"></path><path fill="#f6ba64" d="M221.027 112.554c-.377-.645-.702-1.732-1.028-3.183.096-1.503.193-2.642.487-4.053.33 2.083.461 4.439.541 7.236"></path><path fill="#fea34f" d="M310.292 181.28c-.427-8.369 2.485-15.582 6.002-22.645.69-1.387.988-2.969 1.467-4.46l1.802-.107c.615 7.45 1.23 14.9 2.145 22.949.316.806.333 1.014.351 1.222 0 0 .03.396-.037.583-1.347 1.52-2.934 2.677-3.832 4.23-1.304 2.258-2.112 4.802-3.19 7.586-2.852.69-4.277-.275-4.05-3.361.138-1.884-.227-3.805-.658-5.996"></path><path fill="#f7e389" d="M268.673 22.966c1.187.855 2.915 1.978 2.757 2.676-.552 2.444-1.754 4.742-3.02 7.262-.205-1.924-.098-4.015.035-6.6-1.583.204-3.238.416-5.298.563-.333-.451-.26-.838.198-1.524 1.266-.92 2.145-1.54 3.023-2.16.66-.048 1.321-.096 2.305-.217"></path><path fill="#fef5da" d="M256.014 27.031c1.084-.006 2.168-.012 3.533.254.006.755-.267 1.236-.541 1.718 0 0-.006-.003-.347.015-1.521 1.272-2.7 2.524-3.88 3.777 0 0-.408.072-.935.118-.957.071-1.388.098-1.818.125-.014-.175-.029-.35-.033-1.15 1.347-2.037 2.684-3.447 4.02-4.857"></path><path fill="#f7e389" d="M267.787 33.26c-.015 2.194-.338 4.588-.776 7.363.08-2.133.274-4.648.776-7.363M255.14 32.84c.819-1.298 1.998-2.55 3.52-3.818-.825 1.277-1.992 2.57-3.52 3.818M251.973 33.346c.483-.335.914-.362 1.667-.391-.434 1.011-1.192 2.025-2.329 3.019-.05-.787.28-1.553.662-2.628M259.36 29.01c-.08-.489.193-.97.592-1.7.553-.28.98-.313 1.727-.321-.442.691-1.204 1.36-2.32 2.02M247.964 40.719c-.109-.237.08-.522.476-.96.078.202-.05.557-.476.96"></path><path fill="#f69363" d="M142.637 164.022c-.05 1.158-.396 2.485-1.086 3.895.034-1.186.412-2.456 1.086-3.895"></path><path fill="#f9763c" d="M322.292 178.105c-.25-.074-.268-.282-.31-.802-.025-.312.46-.299.7-.28.108.328-.024.638-.39 1.082"></path><path fill="#eb3742" d="M269.042 242.998c-.904-3.343-2.52-1.298-3.27-.17-3.203 4.828-6.177 9.809-9.514 14.958-2.682-1.706-4.916-3.914-7.525-5.507-4.617-2.818-4.295-3.582-.918-7.648 3.372-4.06 5.49-9.172 8.08-13.865.953-1.726 1.688-3.572 2.796-5.572 1.28-1.302 2.286-2.394 3.61-3.832 1.043 5.019 3.674 7.97 9.323 7.928 1.882-.014 3.783 2.352 6.3 3.892 3.635 5.138 6.022 10.576 9.798 14.76 5.82 6.45 18.414 10.316 26.393 1.12 1.066-1.229 2.582-2.067 4.244-3.123 3.2-3.142 6.045-6.246 9.274-9.77.148 1.733.352 2.99.348 4.247-.026 6.996.976 14.15-3.351 20.537-6.069-1.907-11.427-4.635-17.93-3.247-4.235.905-8.74.944-12.915-2.022-3.004-2.134-6.792-3.533-10.432-4.314-5.676-1.218-11.037-2.457-13.833-8.281-.042-.087-.313-.064-.478-.091"></path><path fill="#fdc151" d="M247.528 85.033c.389 1.341.425 2.74.467 5.016.67 8.234 1.336 15.593 2 23.38l.01 5.57c-1.748.668-3.497 1.336-5.616 2.005-.043-4.401.448-8.802.505-13.21.016-1.244-1.238-2.506-2.438-4.015-.826-.434-1.123-.613-1.42-.793-.059-.433-.119-.866-.155-1.958.096-1.127.17-1.594.449-2.212.049-.706-.108-1.262-.502-1.844-.238-.026-.717-.024-.717-.024a111 111 0 0 1-.097-3.769c.054-.79.083-.961.312-1.26.434-.354.603-.62.708-.928 1.323-1.022 2.725-1.96 3.945-3.093.86-.799 1.473-1.862 2.55-2.865"></path><path fill="#fef5da" d="M239.83 97.147c.281-.2.76-.201.958.154.245.792.29 1.23.336 1.667-.073.466-.147.933-.32 1.74-.484-.893-.87-2.127-.975-3.561M240.125 92.047c-.028.17-.057.342-.196.748-.567-.96-1.024-2.156-.967-3.36.73.866.947 1.74 1.163 2.612"></path><path fill="#f7e389" d="M240.326 91.92c-.417-.746-.634-1.619-1.11-2.707-.22-.69-.18-1.163-.024-1.976.677.785 1.237 1.908 1.82 3.393-.083.669-.252.935-.686 1.29"></path><path fill="#fef5da" d="M240.797 103.129c.536.037.833.216 1.26.63-.083.512-.296.79-.755 1.166-.412-.486-.578-1.07-.505-1.796"></path><path fill="#e91d4b" d="M97.736 253.189c1.532-.492 2.97-.51 4.023-1.153 3.192-1.952 6.288-2.297 9.822-.826 1.312.546 3.1-.052 5.048-.167-3.43 7.92-4.183 16.365-3.631 25.487-5.622-.477-11.402-.892-16.81-2.534-4.196-1.274-8.09-2.353-12.773-.998-.415-.443-.416-.886-.146-1.855 3.43-5.054 6.59-9.582 9.75-14.11a508 508 0 0 1 4.717-3.844"></path><path fill="#fc2f50" d="M92.731 256.732c-2.872 4.829-6.032 9.357-9.463 14.079-2.571 1.274-4.87 2.355-8.079 3.864-4.874-6.915-.875-14.68-.486-22.393 5.47 3.708 11.595 3.97 18.028 4.45"></path><path fill="#ea3045" d="M269.03 243.445c.177-.42.448-.443.49-.356 2.796 5.824 8.157 7.063 13.833 8.28 3.64.782 7.428 2.181 10.432 4.315 4.175 2.966 8.68 2.927 12.915 2.022 6.503-1.388 11.861 1.34 17.931 3.66.714 3.178 1.048 5.898 1.377 9.052.018 1.874.042 3.315.065 4.757-.014.403-.027.807-.409 1.515-.796.307-1.225.31-2.041.312-1.872-.57-3.389-1.063-4.83-1.72-2.235-1.021-4.346-2.886-6.636-3.114-10.397-1.038-20.838-1.627-30.143-2.297l-10.985-8.878c-.67-5.7-1.342-11.4-2-17.548"></path><path fill="#e0474b" d="M326.013 269.985c-.334-2.72-.668-5.441-1.004-8.575 3.948-6.845 2.946-13.998 2.972-20.994.004-1.257-.2-2.514-.348-4.247-3.23 3.524-6.074 6.628-9.24 9.43.336-1.728.993-3.152 1.92-4.778 2.08-3.74 3.889-7.278 5.699-10.816.767-1.51 1.535-3.02 2.536-4.754 2.16 14.653 1.974 29.494-1.094 44.567-.872.236-1.156.202-1.44.167"></path><path fill="#dc3454" d="m324.01 277.004 1.608-.014c-1.38 6.36-3.08 12.725-4.81 19.463a137 137 0 0 1-4.914 9.49c-.76-.272-1.27-.74-1.833-1.825a16 16 0 0 1-.054-1.126s.01-.495.012-.743c.56-3.005 1.12-5.763 2.114-9.083 7.113-3.76 6.412-10.478 7.878-16.162m-4.422 16.513s-.113.069 0 0M326.008 270.418c.29-.398.574-.364 1.283-.255.1 1.583-.226 3.093-.885 4.808-.356-1.238-.38-2.68-.398-4.553"></path><path fill="#d00c48" d="M107.044 305.372c1.656 1.485 3.043 3.907 5.132 5.06 2.371 1.31 5.863 2.71 7.978 1.86 3.02-1.215 3.44-4.68 2.082-8.136-2.906-7.396-5.504-14.912-8.228-22.772.557-1.873 1.112-3.355 1.83-5.266l6.35 13.41a261 261 0 0 0 2.015-4.155c1.488-1.232 2.852-2.164 4.504-3.242 5.884-.781 11.525-2.188 17.066-1.863 7.133.418 12.467 4.993 17.013 10.32 5.107 5.984 5.201 13.23 5.203 20.956-1.954 2.276-3.9 4.098-4.931 5.063-7.311-.916-14.025-1.657-20.705-2.629-5.051-.734-10.06-1.763-14.94-3.825-.298.126-.738.166-.874.39-2.406 3.951-6.28 6.053-10.452 5.12-4.805-1.075-8.307-4.515-9.043-10.291"></path><path fill="#e91d4b" d="M117.378 251.013c-.113-1.912.147-3.816.407-5.72l1.093.045c1.605 2.68 3.21 5.362 4.968 8.357-.457 2.6-1.31 3.003-2.84.866-.927-1.293-2.159-2.367-3.628-3.548M126.344 252.002c.464-.748 1.265-1.496 2.369-2.114.043.615-.218 1.1-.583 1.839-.553.26-1.001.267-1.786.275"></path><path fill="#fff" d="M255.998 26.637c-1.321 1.804-2.658 3.214-4.021 4.988-1.335-.44-3.858-1.587-3.744-1.99.513-1.815 1.405-3.954 2.863-4.953 1.557-1.068 4.23-1.946 4.902 1.955"></path><path fill="#fdf6f0" d="M265.978 23.13c-.488.673-1.367 1.293-2.596 1.92.502-.653 1.353-1.313 2.596-1.92"></path><path fill="#fac85f" d="M201.722 104.156c.16.469.09 1.118-.255 1.808-.175-.515-.075-1.072.255-1.808M200.655 109.804c.099.17-.011.514-.346 1.014-.104-.176.016-.508.346-1.014"></path><path fill="#f4b368" d="M307.312 188.786c-.269-.858-.29-1.924-.204-3.377.222.798.337 1.984.204 3.377"></path><path fill="#feac4e" d="M213.075 140.991c.637-2.407 1.273-4.815 1.927-7.612.763-.387 1.508-.385 2.626-.384 1.302 5.966 1.994 11.838 9.027 14.404 7.915 2.888 12.572 1.475 17.053-6.217.89.328 1.51.86 1.417.781 2.346-1.131 4.237-2.043 6.655-2.614.417 4.774.305 9.206-.042 13.647-.235.008-.706.022-1.063.054-2.012 1.489-3.666 2.945-5.707 4.741-2.592-1.2-5.713-3.007-9.068-4.08-2.526-.807-5.445-1.244-8.026-.83-4.566.735-8.824 1.555-12.256-2.658-.543-.667-1.704-.83-2.594-1.624-.031-1.46-.049-2.522-.066-3.584.021-.447.043-.894.37-1.717.619-.695.932-1.014 1.246-1.333z"></path><path fill="#fd912c" d="M250.299 119.218c-.298-1.933-.301-3.647.016-5.92 1.558.892 2.794 2.344 4.12 3.902l2.194-2.773c2.407 6.856 6.66 6.45 11.504 3.737.519-.291 1.285-.143 1.936-.198 1.805 1.89 3.61 3.778 5.687 5.85a251 251 0 0 1 6.03 9.388c1.431 2.333 2.795 4.708 3.866 7.392-3.81-2.93-7.877-4.373-12.651-3.596v-.387c-.077-4.324-2.073-6.405-6.315-6.753-4.081-3.086-7.861-6.024-11.642-8.963l-1.414 1.15c.781 1.982 1.563 3.964 1.97 5.947l-2.618.017s-.045.021-.056-.283c-.324-.776-.638-1.248-.951-1.72-.461-2.19-.922-4.381-1.676-6.79"></path><path fill="#fc8a31" d="M252.968 128.424c.762-.418 1.51-.423 2.798-.068 1.107 4.121 1.676 7.882 1.964 11.89-2.106 4.412-3.931 8.577-5.757 12.742.112-4.433.224-8.865.219-13.633.176-3.73.469-7.124.776-10.931"></path><path fill="#feac4e" d="M251.752 126.176c.536.304.85.776 1.15 1.55-.467-.26-.92-.822-1.15-1.55"></path><path fill="#f52e5b" d="M75.433 303.258c.52.362.958 1.032 1.3 2.036-.524-.354-.953-1.04-1.3-2.036"></path><path fill="#a6144f" d="M80.82 315.422c.353.15.728.606 1.108 1.387-.358-.144-.722-.612-1.108-1.387"></path><path fill="#ab1c4f" d="M284.424 338.115c.731-.671 1.795-1.385 3.245-2.08.386.018.277.41.227.607-1.08.608-2.11 1.02-3.472 1.473M282.36 339.151c.168-.354.65-.718 1.458-1.064-.164.364-.655.71-1.459 1.064M280.353 340.092c.178-.343.663-.686 1.468-1.009-.173.35-.667.68-1.468 1.01"></path><path fill="#fd9a29" d="M270.018 117.617c-.6.404-1.366.256-1.885.547-4.844 2.712-9.097 3.12-11.504-3.737l-2.195 2.773c-1.325-1.558-2.561-3.01-4.117-4.33-.986-7.228-1.651-14.587-2.31-22.402 3.96-2.143 6.421-1.036 7.45 3.28.268 1.13 1.228 2.093 2.23 3.182.675.171.933.367 1.262.85 1.718 3.312 3.206 6.471 4.924 9.5 1.923 3.39 4.053 6.663 6.145 10.337"></path><path fill="#fcd859" d="M272.732 80.125c.147-.098.23.38.241.622-.12-.013-.254-.268-.24-.622"></path><path fill="#f0503b" d="m275.994 210.007-5.484-2.927c1.256-1.73 2.165-2.985 3.745-5.164-2.583-.641-5.179-2.138-6.845-1.434-1.375.58-1.843 3.72-2.349 5.813-.39 1.614-.214 3.364-.29 5.054l-1.77.026c0-3.14-.12-6.285.03-9.418.188-3.93-1.095-5.844-5.269-4.214l-1.708-4.205c-.663-.044-1.272-.283-1.588-.075-2.59 1.7-4.818 2.482-7.393-.434-.919-1.04-3.364-.783-5.125-1.02-7.328-.983-14.66-1.927-21.99-2.893-.328-.043-.768-.047-.951-.251-5.777-6.459-13.224-4.07-20.265-3.888-1.142.029-2.562.14-3.392-.443-4.226-2.97-7.017-.786-9.948 2.002-.002-4.418.296-8.479.596-12.939.006-1.463.011-2.528.36-3.647 2.055-1.635 3.542-4.067 5.527-4.584 2.607-.678 5.606.154 8.436.337l-.086-.935c2.922 1.743 5.844 3.487 8.962 5.509.81 1.208 1.489 2.103 2.028 3.074 5.778 10.42 20.699 17.186 31.695 13.465 4.399-1.49 8.06-5.157 12.41-7.863 2.636-1.21 5.917-3.98 7.023-3.286 4.043 2.537 6.665.743 10.496-2.846l5.167 12.183c-.34 5.688-.681 11.375-1.02 17.528-.325 2.194-.65 3.923-.981 6.31-.011.827-.016.996-.021 1.165"></path><path fill="#fe5d3f" d="M325.638 229.96c-1.436 3.583-3.246 7.121-5.68 10.886-4.026 2.366-7.428 4.505-11.631 7.148.377-7.24.377-7.24-5.202-5.189-5.703 2.097-15.316-1.116-18.837-6.273-2.406-3.523-4.844-7.026-7.267-10.538a256 256 0 0 1-.938-5.643c1.998-.794 4.017-1.205 6.264-1.663 3.99 4.493 8.65 7.888 15.704 7.484 4.312-.247 8.703 1.355 13.091 1.814 3.023.316 6.122-.107 9.149.192 1.698.168 3.318 1.132 5.347 1.782M275.996 210.382c.003-.544.008-.713.024-1.137 1.22.295 2.43.844 3.639 1.393-.968.786-1.935 1.571-3.267 2.364-.374-.743-.384-1.494-.396-2.62"></path><path fill="#fc8a31" d="M273.001 137c4.774-.777 8.84.666 12.695 3.953 2.69 5.767 5.014 11.506 7.382 17.64.015.842-.014 1.29-.419 2.034-4.135-2.013-7.893-4.323-11.693-6.998-2.683-5.787-5.324-11.208-7.965-16.63"></path><path fill="#f25f36" d="M278.3 184.725c-1.89-3.505-3.494-7.29-5.451-11.904-3.831 3.589-6.453 5.383-10.496 2.846-1.106-.695-4.387 2.076-6.984 2.943-.003-1.413.308-2.513.906-3.879 1.103-5.42 1.92-10.574 2.737-16.143.011-1.799.02-3.182.383-4.633 1.484-1.947 2.614-3.824 3.834-5.85 2.175 1.116 5.077 3.743 6.444 3.1 4.524-2.124 5.908 1.21 8.107 3.401 1.104 1.1 2.142 2.266 3.212 3.867.002 5.153.002 9.84.001 14.526-.803 3.816-1.605 7.632-2.693 11.726"></path><path fill="#fd7e33" d="M281.269 173.226c-.275-4.914-.275-9.6-.272-15.154l.01-4.078c3.759 2.31 7.517 4.62 11.647 6.97.042 7.42-.287 14.801-.65 22.6-5.497-1.123-9.737-3.875-10.735-10.338"></path><path fill="#fe623d" d="M185.995 173.996c-.297 4.061-.595 8.122-.938 12.595-2.202 6.137-4.806 11.472-11.696 13.423-1.116.01-1.863.002-2.984 0-1.161-.318-1.949-.641-3.057-.987-1.127-.61-1.934-1.199-3.062-2.29-1.642-6.245-2.963-11.987-4.275-18.147.012-1.81.017-3.203.36-4.546 4.39 4.56 9.021 8.057 15.27 8.9 5.654.763 7.056-.202 8.394-5.608.298-1.203 1.307-2.231 1.988-3.34"></path><path fill="#fe5641" d="M277.021 226.39c2.423 3.116 4.86 6.619 7.267 10.142 3.52 5.157 13.134 8.37 18.837 6.273 5.58-2.05 5.58-2.05 5.202 5.189 4.203-2.643 7.605-4.782 11.362-6.946-.303 1.399-.96 2.823-1.65 4.588-1.342 1.36-2.858 2.197-3.924 3.426-7.979 9.196-20.572 5.33-26.393-1.12-3.776-4.184-6.163-9.622-9.44-14.727-.598-2.295-.93-4.363-1.26-6.826"></path><path fill="#fe4a47" d="M139.997 210.998c.003.168.005.336.014.756-.463.573-.931.894-1.696 1.24-.297.024-.31.01-.272-.313.677-.777 1.316-1.23 1.954-1.683"></path><path fill="#fe5641" d="M140.041 210.617c-.682.834-1.32 1.287-2 2.06-2.992 1.459-5.942 2.596-9.527 3.978v-5.169c-.58-.117-1.185-.445-1.472-.265-3.991 2.496-7.136.781-10.208-1.847-2.533-2.167-5.176-3.386-8.573-1.354-.862.515-3.32.052-3.758-.705-2.086-3.61-5.317-3.473-9.11-3.324 2.877-4.777 6.185-9.547 9.499-14.668 1.197-1.563 2.388-2.777 4.143-4.195 1.013-.569 1.462-.932 1.911-1.296.773.62 1.621 1.168 2.308 1.873 7.04 7.233 15.265 6.299 23.922-.429 2.948-1.986 5.38-3.636 7.808-4.872-.332 3.473-.66 6.534-.987 9.595a5205 5205 0 0 0-3.956 20.618"></path><path fill="#ee4840" d="M144.426 190c-.101-3.062.226-6.123.564-9.843.01-.66.021-1.153.36-1.204 1.811-1.754 3.187-3.559 4.794-5.126 1.085-1.058 2.663-2.632 3.716-2.425 1.168.23 2.002 2.212 2.96 3.449 1.064 1.375 2.104 2.77 3.155 4.157 1.32 5.742 2.641 11.484 4.011 17.598-.44.28-1.207.355-1.376.072-4.161-6.949-11.572-5.18-18.184-6.679"></path><path fill="#fe7038" d="M185.998 173.597c-.684 1.508-1.693 2.536-1.991 3.74-1.338 5.405-2.74 6.37-8.393 5.607-6.25-.843-10.882-4.34-15.273-9.337-.342-4.192-.346-7.897-.24-11.823.31-.495.574-.683.899-.785 5.119.784 10.373 1.11 15.292 2.565 2.113.626 3.53 3.6 5.703 5.99 2.013-3.243 3.633-5.855 5.617-8.123-.29 3.086-.944 5.83-1.598 8.574z"></path><path fill="#f25f36" d="M186.359 169.95c.309-2.689.963-5.433 1.618-8.566 2.586-4.842 5.17-9.295 7.895-14.062 2.476-2.154 4.65-4.28 7.207-5.727 1.647-.932 3.857-.869 5.706-.562-.669 5.448-1.23 10.208-1.79 15.407.667 4.813 1.337 9.186 2.006 13.559l-8.766-5.231.086.935c-2.83-.183-5.83-1.015-8.436-.337-1.985.517-3.472 2.949-5.526 4.584"></path><path fill="#fa6941" d="M160.993 160.646c-.318.455-.581.643-1.205 1.28-7.485 3.977-12.855 9.047-14.777 17.078l-.017.74c-2.438 1.896-4.87 3.546-7.647 5.23.226-1.105.797-2.242 1.509-3.675 6.256-4.878 7.102-12.25 9.974-18.958 2.368-.686 4.634-.88 6.805-1.44 1.664-.428 3.21-1.318 4.99-2.08.066.267.213.87.368 1.825"></path><path fill="#fd7936" d="M206.995 156c.56-4.76 1.121-9.519 1.84-14.64.654-.099 1.15.163 1.907.533.686 1.072 1.112 2.038 1.877 3.062.356 1.122.374 2.184.391 4.045.867 3.631 1.367 6.644 2.662 9.264 6.089 12.326 17.536 17.058 29.667 8.722 4.807-2.66 9.24-5.322 13.672-7.983-.817 5.154-1.633 10.308-3.195 15.729-6.013-.066-11.413-1.283-16.514-.514-6.817 1.027-12.817-1.068-18.626-3.38-5.669-2.256-11.792-5.08-11.81-13.003-.001-.613-1.219-1.223-1.87-1.835"></path><path fill="#fea34f" d="M213.053 141.327c.522-.01 1.022.314 1.521.638-.314.32-.627.638-1.232.998-.298-.406-.305-.854-.29-1.636"></path><path fill="#d00c48" d="M91.35 301.958c.868-7.5 3.995-12.25 9.307-14.72 2.085 5.342 4.171 10.686 6.295 16.397-3.371-.623-7.567.461-9.938-3.595-.177-.304-3.467 1.211-5.664 1.918"></path><path fill="#f77a63" d="M110.765 183.632c-.268.564-.717.927-1.475 1.302.226-.494.76-.998 1.475-1.302"></path><path fill="#fe4a47" d="M82.68 225.113c-.139.831-.567 1.806-1.342 2.833.12-.862.586-1.776 1.342-2.833"></path><path fill="#e72947" d="M323.623 277.002c-1.078 5.686-.377 12.404-7.334 15.807-.668-4.92-1.055-10.044-1.487-15.751-2.557 3.552-4.445 6.673-6.83 9.35-2.556 2.872-5.851 3.17-9.54 1.842-7.66-2.76-14.564-6.563-20.125-13.1-2.611-4.58-4.918-9.008-7.25-13.796 3.511 2.5 7.05 5.36 10.957 8.517 9.305.67 19.746 1.26 30.143 2.297 2.29.228 4.401 2.093 6.636 3.113 1.441.658 2.958 1.152 4.83 1.72"></path><path fill="#cc1147" d="M306.139 305.946c-.046.018.046-.018 0 0"></path><path fill="#d21545" d="M313.838 303.081c.17.08.17.25.164.674-.182.083-.37-.076-.514-.27-.03-.038.116-.206.35-.404"></path><path fill="#fe4149" d="M94.573 218.8c.102 1.068-.008 1.895-.118 2.722l-1.255-.312c.386-.884.773-1.768 1.373-2.41"></path><path fill="#fcd057" d="M241.33 98.816c-.251-.285-.297-.723-.304-1.488.196.226.353.782.304 1.488"></path><path fill="#e72947" d="M319.533 293.551c-.057.035.056-.034 0 0"></path><path fill="#fea34f" d="M244.965 166.984c-11.757 8.338-23.204 3.606-29.293-8.72-1.295-2.62-1.795-5.633-2.648-8.865.89-.006 2.051.157 2.594.824 3.432 4.213 7.69 3.393 12.256 2.659 2.58-.415 5.5.022 8.026.83 3.355 1.072 6.476 2.879 9.068 4.079 2.04-1.796 3.695-3.252 5.696-4.357-1.668 4.751-3.684 9.15-5.699 13.55"></path><path fill="#fd7e33" d="M245.34 166.986c1.64-4.401 3.656-8.801 5.682-13.584.01-.384.481-.398.716-.406 2.06-4.173 3.886-8.338 6.285-12.456.722 4.526.87 9.004 1.02 13.483-.01 1.383-.02 2.766-.03 4.565-4.435 3.076-8.867 5.738-13.674 8.398"></path><path fill="#f36e30" d="M259.395 153.955c-.502-4.41-.65-8.89-1.092-13.662-.861-4.055-1.43-7.816-2.164-11.939a768 768 0 0 1-2.509-6.306l1.414-1.15c3.78 2.938 7.561 5.876 11.679 9.303 2.317 2.592 4.297 4.695 6.277 6.798 2.642 5.422 5.283 10.843 7.966 16.63.039 1.435.036 2.506.029 3.977-1.073-.734-2.111-1.9-3.215-3-2.199-2.191-3.583-5.525-8.107-3.4-1.367.642-4.269-1.985-6.444-3.102-1.22 2.027-2.35 3.904-3.834 5.85"></path><path fill="#fc8a31" d="M273 136.613c-1.98-1.717-3.96-3.82-5.977-6.264 3.905-.141 5.901 1.94 5.977 6.264"></path><path fill="#fe7038" d="M206.994 156.44c.653.172 1.871.782 1.872 1.395.018 7.924 6.141 10.747 11.81 13.003 5.809 2.312 11.81 4.407 18.626 3.38 5.101-.77 10.501.448 16.227.78.148 1.1-.163 2.199-.513 3.641-4.036 3.02-7.697 6.688-12.096 8.177-10.996 3.721-25.917-3.045-31.695-13.465-.54-.971-1.218-1.866-2.028-3.074-.865-4.651-1.535-9.024-2.203-13.837"></path><path fill="#f0503b" d="M145.35 178.953c1.583-7.98 6.953-13.05 14.329-16.807.316 3.564.32 7.269.325 11.41-.004 1.83-.009 3.223-.021 5.034-1.059-.969-2.099-2.364-3.163-3.74-.958-1.236-1.792-3.219-2.96-3.448-1.053-.207-2.631 1.367-3.716 2.425-1.607 1.567-2.983 3.372-4.795 5.126"></path></svg>